<svg xmlns="http://www.w3.org/2000/svg" viewBox="0 0 215.75 369.96"><defs><style>.cls-1{fill:#a9a8c2;opacity:0.4;}.cls-2{fill:#b1a6ff;opacity:0.3;}.cls-3{fill:#ffbf8d;}.cls-4,.cls-9{fill:#d8eaee;}.cls-5{fill:#2f1780;}.cls-6{fill:#6054d4;}.cls-10,.cls-7{fill:#2f117e;}.cls-7{opacity:0.34;}.cls-8{fill:#3fb4de;}.cls-9{opacity:0.35;}.cls-10{opacity:0.12;}.cls-11{fill:#f1b488;}</style></defs><title>cancel</title><g id="Слой_4" data-name="Слой 4"><ellipse class="cls-1" cx="108.33" cy="350" rx="75.48" ry="4.52"/><path class="cls-2" d="M206.46,177.67c-3-45.12-31.75-46.24-32.35-61.34s24.76-55.08-4.9-86.49c-21.52-22.78-57.05-10.12-61.52-8.4C71.07,13.68,88.14,63.33,53.15,54.15,6.26,41.85,6.37,99.11,9,134c3.35,45.1,32.06,46,32.77,61.09s-24.38,55.27,5.5,86.45c20.84,21.76,54.42,10.63,60.92,8.18,35,6.71,19-41.88,53.57-32.54C208.54,269.82,208.82,212.56,206.46,177.67Z"/><path class="cls-3" d="M56.38,134.32s-11,81.31,3.26,82.93,14.94-7.7,14.94-7.7-.75-.86-3.78,1.76c0,0,1.28-3.76.09-4.05s-3.68,2.82-3.68,2.82-2.54-4-6-3.46c0,0,3.88-14.73,7.24-25s13.72-39,9.91-53.82"/><path class="cls-4" d="M77.69,79.19s12.72,37.18,3.73,59.73L50.65,133S58.13,85.68,77.69,79.19Z"/><polygon class="cls-3" points="84.06 332.64 85.95 340 95.83 340 93.99 331.73 84.06 332.64"/><path class="cls-5" d="M95.83,340a20.3,20.3,0,0,1,5.44,10H67.11s1.43-8.08,18.84-10C88.41,339.73,95.83,340,95.83,340Z"/><polygon class="cls-3" points="119.99 332.64 121.88 340 131.75 340 129.91 331.73 119.99 332.64"/><path class="cls-5" d="M131.75,340a20.21,20.21,0,0,1,5.44,10H103s1.42-8.08,18.84-10C124.33,339.73,131.75,340,131.75,340Z"/><path class="cls-6" d="M94.92,265.89c-3,10.26,6.19,69.13,6.19,69.13H81s-7.14-38.8-12.49-57.89c-3.83-13.66,1.06-56.59,4.15-79.9,1.23-9.26,2.17-15.43,2.17-15.43l33.5-4.86-.13,17.6s-5.68,33.84-9.83,55.38C97,257.32,95.7,263.27,94.92,265.89Z"/><path class="cls-7" d="M108.34,176.94l-.13,17.6s-5.68,33.84-9.83,55.38c-4-14.93-11.59-29-19.52-42.4q-3-5.16-6.19-10.29c1.23-9.26,2.17-15.43,2.17-15.43Z"/><path class="cls-6" d="M141.83,176.94l-.12,17.6s-2.48,14.75-5.36,31c-3,16.8-6.39,35.16-7.93,40.37-3,10.26,6.19,69.13,6.19,69.13h-20.1s-7.14-38.8-12.49-57.89c-3.46-12.36.2-50.73,3.22-76.23,1.64-13.89,3.09-24,3.09-24Z"/><path class="cls-7" d="M141.83,176.94l-.12,17.6s-2.48,14.75-5.36,31a94.3,94.3,0,0,0-12.13-11.08c-5.29-4.11-14.66-7.82-19-13.54,1.64-13.89,3.09-24,3.09-24Z"/><path class="cls-8" d="M151.61,164.79a210.64,210.64,0,0,1-4.38,27.74l-80.11-1.81a166.6,166.6,0,0,0,4.08-17.87q.66-3.73,1.21-7.58c1.12-7.8,1.93-15.88,2.52-23.82.7-9.35,1.09-18.51,1.27-26.78s.19-15.71.13-21.53C76.23,85,76,79.89,76,79.89a85.25,85.25,0,0,1,12.46-4c1.82-.43,3.7-.82,5.65-1.15a103.41,103.41,0,0,1,14.22-1.47,103.57,103.57,0,0,1,14.22,1.47c1.89.32,3.73.69,5.5,1.12l.14,0c1.62.38,3.22.8,4.76,1.25,2.12.62,4.15,1.29,6.06,2a74.37,74.37,0,0,1,3,6.91,148.92,148.92,0,0,1,6.47,22.26,181.58,181.58,0,0,1,3.26,22A196,196,0,0,1,151.61,164.79Z"/><path class="cls-9" d="M148.45,108.36a120.78,120.78,0,0,1-72.25,6.31c.19-8.3.19-15.71.13-21.53,21.5,3.13,44.14-.51,65.65-7A148.92,148.92,0,0,1,148.45,108.36Z"/><path class="cls-9" d="M151.61,164.79a133.75,133.75,0,0,1-80.41,8.06c1.77-10.06,3-20.85,3.73-31.4,25.49,2.85,51.93-2.39,76.78-11.08A196,196,0,0,1,151.61,164.79Z"/><path class="cls-10" d="M151.61,164.79a210.64,210.64,0,0,1-4.38,27.74l-80.11-1.81a166.6,166.6,0,0,0,4.08-17.87q.66-3.73,1.21-7.58a22.21,22.21,0,0,1,8.06-3.57c7.17-1.56,14.57.42,21.86,1.18s15.64-.16,20.28-5.84c3.26-4,4-9.45,4.11-14.59.36-11.31-1.19-22.6-1.16-33.91,0-10.89,1.67-22.16,7.4-31.36,2.12.62,4.15,1.29,6.06,2a74.37,74.37,0,0,1,3,6.91,148.92,148.92,0,0,1,6.47,22.26,181.58,181.58,0,0,1,3.26,22A196,196,0,0,1,151.61,164.79Z"/><path class="cls-3" d="M94.11,74.68c.83,5.06,3.77,13.23,14.22,13.23s13.4-8.17,14.23-13.23a112.84,112.84,0,0,0-14.23-1.37A112.68,112.68,0,0,0,94.11,74.68Z"/><path class="cls-3" d="M115.4,82.28H101.11V74.59c4.79-1.13,9.55-2.46,14.29-3.81Z"/><path class="cls-11" d="M115.4,65.41v5.37c-4.74,1.35-9.5,2.68-14.29,3.81V65.41Z"/><path class="cls-11" d="M89.55,54s-7.87-4.5-9.22-.59,6.77,10.27,12.16,5.82"/><path class="cls-3" d="M113.39,33.14,83.48,37s2.37,31.81,8,34.92,27.84-2.29,27-13.62S113.39,33.14,113.39,33.14Z"/><path class="cls-5" d="M86.62,47.46c-.14-2.31-.53-5-2.54-6.15-.64-.36-1.63-.42-2,.24a1.67,1.67,0,0,0-.11.74A20.48,20.48,0,0,0,82.13,45a22.58,22.58,0,0,0,.68,2.9c.58,2,1,6.93,3,8C87.43,54,86.62,49.89,86.62,47.46Z"/><path class="cls-5" d="M110.93,38.91a2.87,2.87,0,0,1-4.22-2.19A18.36,18.36,0,0,1,102.34,40a6.83,6.83,0,0,1-3.26,1,3.05,3.05,0,0,1-2.8-1.67c-1.84,1.72-3.76,3.5-6.17,4.21s-5.45,0-6.56-2.26C81.06,43.46,76.79,42.7,74.9,40a7.47,7.47,0,0,1,.82-9.07,9.6,9.6,0,0,1,9-2.59,8.94,8.94,0,0,1,13-11.09c1.58,1,2.81,2.47,4.4,3.44,2.53-3.35,6.66-5.72,10.83-5.22a9.76,9.76,0,0,1,8,6.67,9.74,9.74,0,0,1-2.88,10A11.14,11.14,0,0,1,123,41.3c0,3.27-2,9.14-6.21,7.64C113,47.59,110.41,42.8,110.93,38.91Z"/><path class="cls-5" d="M107.06,52.51a3.41,3.41,0,0,0,2.91.82,3.47,3.47,0,0,0,1.46-.73A4,4,0,0,0,112,52l.26-.34c.09-.13.23-.25.3-.38a.31.31,0,0,1,.59.19,3.12,3.12,0,0,1-.08.52,2.24,2.24,0,0,1-.22.5,3.7,3.7,0,0,1-.66.87,4.15,4.15,0,0,1-1.87,1.08,4.5,4.5,0,0,1-4.09-1C105.63,53,106.45,52,107.06,52.51Z"/><path class="cls-5" d="M95.57,55.32a3.42,3.42,0,0,1-2.4,1.86,3.56,3.56,0,0,1-1.62-.12,4.18,4.18,0,0,1-.76-.31l-.38-.23a3.42,3.42,0,0,1-.42-.23.31.31,0,0,0-.47.4,3.07,3.07,0,0,0,.27.46,4.59,4.59,0,0,0,.39.37,4.08,4.08,0,0,0,3.09.85,4.52,4.52,0,0,0,3.42-2.45C97.05,55.19,95.92,54.59,95.57,55.32Z"/><path class="cls-5" d="M103.33,56.9a.38.38,0,0,0-.36-.27,1.7,1.7,0,0,0-.81.3,1.28,1.28,0,0,1-.74.16,2.38,2.38,0,0,1-.9-.25.49.49,0,0,1-.35-.52c-.07-.76-.14-1.51-.2-2.27a22.61,22.61,0,0,0-.24-2.31c0-.19-.29-.12-.31,0-.12.95-.14,1.9-.17,2.85,0,.49,0,1-.09,1.45a2.12,2.12,0,0,0,.18,1.22,2.74,2.74,0,0,0,2.29,1C102.32,58.33,103.69,57.83,103.33,56.9Z"/><path class="cls-5" d="M94.46,47.88a.8.8,0,0,0-1,.28A11.29,11.29,0,0,1,91,50.91a6.61,6.61,0,0,1-1.45.8,13.6,13.6,0,0,1-1.64.42.24.24,0,0,0-.06.44,4.26,4.26,0,0,0,3.79-.46,11.38,11.38,0,0,0,3.08-3.18A.76.76,0,0,0,94.46,47.88Z"/><path class="cls-5" d="M113.26,48a1.4,1.4,0,0,0-.5,0c-.21,0-.43,0-.64,0-.39,0-.78-.09-1.16-.15a10.61,10.61,0,0,1-2.21-.59,9.8,9.8,0,0,1-3.6-2.46c-.68-.75-1.79.36-1.11,1.11a9.38,9.38,0,0,0,4.4,2.74,8.87,8.87,0,0,0,2.5.34,7.06,7.06,0,0,0,1.37-.19,1.9,1.9,0,0,0,1-.54A.17.17,0,0,0,113.26,48Z"/><path class="cls-5" d="M110.72,57.79a27.6,27.6,0,0,0-7.53,2.91A24.1,24.1,0,0,0,100,62.92a18.85,18.85,0,0,0-1.49,1.33c-.23.24-.76.63-.63,1a.19.19,0,0,0,.17.13.23.23,0,0,0,.22-.12s0,0,0,0a4.08,4.08,0,0,1,.6-.37l.7-.47c.49-.34,1-.65,1.5-1a36.21,36.21,0,0,1,3.23-1.78,31.57,31.57,0,0,1,6.88-2.41C112.09,59.05,111.68,57.57,110.72,57.79Z"/><path class="cls-3" d="M115.33,50.08s3-8.55,6.58-6.48,1.6,12.2-5.39,12.36"/><path class="cls-3" d="M143.61,134.16s-5.18,81.89,9.14,82.5,14.35-8.74,14.35-8.74-.81-.81-3.64,2c0,0,1-3.84-.2-4s-3.47,3.07-3.47,3.07-2.82-3.83-6.26-3c0,0,2.82-15,5.45-25.48s10.92-39.84,6.06-54.39"/><path class="cls-4" d="M139.52,79.19s-10.06,38,.51,59.85l30.27-8.11S159.48,84.28,139.52,79.19Z"/><path class="cls-5" d="M69.12,77.14A16.87,16.87,0,0,0,64,80.86a39,39,0,0,0-4.36,4.72,39.6,39.6,0,0,0-6.09,11.16c-.26.71.85,1,1.12.3a38.6,38.6,0,0,1,6.28-10.57,39.2,39.2,0,0,1,4.16-4.29c1.51-1.34,3.36-2.38,4.75-3.83C70.29,77.86,69.83,76.89,69.12,77.14Z"/><path class="cls-5" d="M66.08,72.94a4.69,4.69,0,0,0-2.38.9,17.72,17.72,0,0,0-2,1.27,17.48,17.48,0,0,0-3.44,3.38c-.44.58.51,1.29,1,.77a19.81,19.81,0,0,1,3.35-2.85,17.13,17.13,0,0,1,1.9-1.11,6.6,6.6,0,0,0,2-1.11A.74.74,0,0,0,66.08,72.94Z"/><path class="cls-5" d="M157.57,86.27a10.54,10.54,0,0,0-1.71-2.6,26.54,26.54,0,0,0-6.75-6.22,29.3,29.3,0,0,0-5.52-2.82,27.89,27.89,0,0,0-3-1,6,6,0,0,0-3.09-.42.82.82,0,0,0-.19,1.47,8.6,8.6,0,0,0,2.77.8,28.1,28.1,0,0,1,2.69.87A29.1,29.1,0,0,1,148,79a32,32,0,0,1,4.55,3.47c.73.67,1.42,1.38,2.09,2.12s1.19,1.62,1.91,2.26C157,87.21,157.79,86.87,157.57,86.27Z"/><path class="cls-5" d="M152.63,73.72c-.4-.22-.78-.48-1.18-.69l-1.25-.67c-.4-.21-.82-.39-1.23-.59a5.63,5.63,0,0,0-1.42-.57.78.78,0,0,0-.83.34.76.76,0,0,0,.12.89,5.28,5.28,0,0,0,1.34.78c.45.21.89.43,1.35.62l1.25.53.36.15c.13,0,.26,0,.38.09l.62.27a.63.63,0,0,0,.75-.36A.64.64,0,0,0,152.63,73.72Z"/><path class="cls-5" d="M63.25,243.92a.61.61,0,0,0-1.21,0A143.93,143.93,0,0,0,63.32,269c.11.75,1.36.57,1.32-.18C64.1,260.52,63.41,252.24,63.25,243.92Z"/><path class="cls-5" d="M57.74,249.78A33.46,33.46,0,0,0,57.3,246a.65.65,0,0,0-1.27.17,31.81,31.81,0,0,0,.36,3.64c.15,1.21.32,2.42.47,3.64a.63.63,0,0,0,.61.6.61.61,0,0,0,.6-.6C58,252.25,57.86,251,57.74,249.78Z"/><path class="cls-5" d="M143.22,236.46c.14-1.5.32-3,.55-4.49a73.82,73.82,0,0,1,1.95-8.82c.18-.64-.91-1-1.12-.37a61,61,0,0,0-2.33,8.9c-.27,1.49-.48,3-.63,4.48a22.6,22.6,0,0,0-.2,4.72.71.71,0,0,0,1.4.07C143.1,239.48,143.08,238,143.22,236.46Z"/><path class="cls-5" d="M148,236c0-.22,0-.44,0-.66,0-.46,0-.91.09-1.36s.11-1,.2-1.44c0-.21.08-.43.13-.65s0-.22.07-.32,0-.3.06-.45c.1-.6-.81-.95-1.06-.35a4.43,4.43,0,0,0-.2.45c0,.11-.07.22-.1.33s-.13.5-.19.75c-.11.47-.21.94-.29,1.42s-.14,1-.17,1.43c0,.29,0,.58,0,.86a6.87,6.87,0,0,0,.08.78.68.68,0,0,0,.63.6.65.65,0,0,0,.68-.54C147.93,236.55,148,236.28,148,236Z"/></g></svg>