<svg xmlns="http://www.w3.org/2000/svg" viewBox="0 0 205.25 377"><defs><style>.cls-1{fill:#efb200;}.cls-1,.cls-2{opacity:0.4;}.cls-2{fill:#a9a8c2;}.cls-3{fill:#ffbf8d;}.cls-4{fill:#f1b488;}.cls-5,.cls-9{fill:#acdde5;}.cls-6{fill:#2f1780;}.cls-7{fill:#472694;}.cls-8{fill:#d8eaee;}.cls-9{opacity:0.29;}.cls-10{fill:#db3549;}</style></defs><title>done</title><g id="Objects"><path class="cls-1" d="M68.15,66.44,81.23,90.31q-31.58,5.75-62.87,12.88L40.54,129.7c-13.94,9.5-17,15.71-29.74,26.72,17.54.35,24.67,7.57,41.23,13.37A363.47,363.47,0,0,1,23.78,204.2a78.39,78.39,0,0,1,23,4.11L27.7,233.84c-.79,1.06-1.62,2.31-1.3,3.58a4.26,4.26,0,0,0,1.84,2.21c6.52,4.75,14.32,7.41,21.22,11.58A7.88,7.88,0,0,1,53,254.66c.91,2.25-.22,4.76-1.32,6.91L41.47,281.52a161.44,161.44,0,0,1,24.09.12,151.76,151.76,0,0,0,5.31,35.58L87.7,299.71c1-1.06,2.22-2.2,3.68-2.12,1.61.08,2.73,1.57,3.61,2.91l11.93,18.22a164.45,164.45,0,0,1,12.84-28.13c.85-1.48,1.9-3.08,3.56-3.49,1.5-.37,3,.35,4.4,1l16.67,8.47A71.14,71.14,0,0,0,140,270.19l27.23,2.37L149,245l29-4a52.86,52.86,0,0,0-18.71-21.7,202.32,202.32,0,0,0,24.9-13.21,79.89,79.89,0,0,0-18.63-9.68L181.89,163l-23.39-3.92A126,126,0,0,1,179,127.35a237.82,237.82,0,0,0-30.67.49,202.45,202.45,0,0,1,19-49L135.1,92.14a137.93,137.93,0,0,1,.37-40.42,132.47,132.47,0,0,1-15.29,22.69l-13.27-28.3c1.37,2.73-.84,14.3-1.67,17.37-.94,3.45-2.31,5.68-5.76,6.93C90.84,73.53,76.78,68,68.15,66.44Z"/><ellipse class="cls-2" cx="105.28" cy="355.46" rx="75.48" ry="4.52"/><path class="cls-3" d="M42,148.48l35.42-29.29L75,85.4S10.78,135.65,18,148.2s48.8,33.88,48.8,33.88l-2.26,3.15s-2.67-3.08-3.31-2.82,1.29,5.11,2.36,4.86c0,0-.83,2,2,2.28,0,0,2.54,1.53,4.32.64s4.68-7.78,4.68-7.78Z"/><path class="cls-4" d="M31.59,124.16l18.1,18,27.75-22.95L75,85.4S48.62,106,31.59,124.16Z"/><path class="cls-5" d="M74.6,84.22,37.84,110.05S56,137.66,66,136l8.59-12.11Z"/><path class="cls-3" d="M192.52,148.2c-7.25,12.55-48.8,33.88-48.8,33.88l2.26,3.15s2.67-3.09,3.31-2.82-1.29,5.12-2.36,4.86c0,0,.83,2-2,2.29,0,0-2.54,1.52-4.32.63s-4.68-7.78-4.68-7.78l32.58-33.93-7.67-6.34-27.75-22.95,2.45-33.79S161.94,106,179,124.16C188.52,134.32,195.13,143.69,192.52,148.2Z"/><path class="cls-4" d="M179,124.16l-18.1,18-27.75-22.95,2.45-33.79S161.94,106,179,124.16Z"/><path class="cls-5" d="M136,84.22l36.76,25.83S154.6,137.66,144.56,136l-7.44-11.16Z"/><polygon class="cls-3" points="64.27 335.01 61.73 348.85 73.66 348.85 76.18 335.01 64.27 335.01"/><path class="cls-6" d="M74.2,345.8s2.79,5,1.75,10.28H37.84s1.7-4.86,6.26-6.74,18.17-3.54,18.17-3.54Z"/><polygon class="cls-3" points="146.29 335.01 148.83 348.85 136.9 348.85 134.38 335.01 146.29 335.01"/><path class="cls-6" d="M136.37,345.8s-2.8,5-1.76,10.28h38.11s-1.69-4.86-6.26-6.74-18.17-3.54-18.17-3.54Z"/><path class="cls-7" d="M60.38,338H80.65L103.39,207.2Q87,210.83,70.52,214.42Z"/><path class="cls-7" d="M107,206.4,129.91,338h20.27L138.8,199.26Q122.92,202.89,107,206.4Z"/><path class="cls-6" d="M137.42,182.41H73.14l-2.62,32q16.42-3.6,32.87-7.22l1.89-10.85L107,206.4q15.89-3.53,31.77-7.14Z"/><path class="cls-8" d="M138.77,126.89v60.38h-67L74.6,84.21a97.34,97.34,0,0,1,10.81-3l.15,0q2.66-.58,5.5-1a110.92,110.92,0,0,1,14.22-1.36,110.74,110.74,0,0,1,14.22,1.36c1.94.31,3.83.66,5.64,1.06a90.83,90.83,0,0,1,12.47,3.66Z"/><path class="cls-9" d="M138.77,171.75v15.52h-67L74.6,84.21a97.34,97.34,0,0,1,10.81-3l.15,0c0,.21,0,.42,0,.63A282.61,282.61,0,0,0,86,114.47c.89,12.58,2.73,25.41,8.71,36.51s16.82,20.29,29.38,21.27C128.83,172.63,133.9,171.91,138.77,171.75Z"/><path class="cls-4" d="M120.54,51.86s6.81-6,8.92-2.42-4.59,11.41-10.76,8.12"/><path class="cls-3" d="M119.5,80.14c-.82,5.07-3.77,13.23-14.22,13.23s-13.4-8.16-14.22-13.23a110.92,110.92,0,0,1,14.22-1.36A110.92,110.92,0,0,1,119.5,80.14Z"/><path class="cls-3" d="M98.21,83.88H112.5V76.2c-4.79-1.14-9.55-2.47-14.29-3.82Z"/><path class="cls-4" d="M98.21,67v5.37c4.74,1.35,9.5,2.68,14.29,3.82V67Z"/><path class="cls-3" d="M93,36.21l30.1-2.13s4,31.64-.91,35.81S94.48,73.2,93,61.93,93,36.21,93,36.21Z"/><path class="cls-7" d="M120.26,35.12l4.3,16.41s1.8-13.87,0-16.8-4.3,0-4.3,0"/><path class="cls-3" d="M94.51,53.2s-4.65-7.79-7.74-5,.86,12.27,7.74,11"/><path class="cls-6" d="M105.32,55.81a3.29,3.29,0,0,0-2.62-1.38,3.44,3.44,0,0,0-1.53.42,4.28,4.28,0,0,0-.68.46l-.31.28c-.11.11-.26.2-.36.31a.31.31,0,0,1-.53-.3,4.24,4.24,0,0,1,.18-.5,2.63,2.63,0,0,1,.3-.44,4,4,0,0,1,2.8-1.41A4.32,4.32,0,0,1,106.28,55C106.77,55.66,105.8,56.46,105.32,55.81Z"/><path class="cls-6" d="M116.67,55.31a2.91,2.91,0,0,1,2.34-1.4,2.61,2.61,0,0,1,1.32.4,3.11,3.11,0,0,1,.58.45,3.45,3.45,0,0,1,.26.28c.1.11.23.19.31.3s.57,0,.47-.3a4.67,4.67,0,0,0-.14-.5,2.34,2.34,0,0,0-.26-.43,3.29,3.29,0,0,0-.67-.72,3.09,3.09,0,0,0-1.73-.66,3.78,3.78,0,0,0-3.29,1.79C115.42,55.17,116.24,56,116.67,55.31Z"/><path class="cls-6" d="M117.52,60.7a15.42,15.42,0,0,1-3.07,5.78,5.45,5.45,0,0,1-4,2,6.27,6.27,0,0,1-5.82-4,9.52,9.52,0,0,1-.75-2.34Z"/><path class="cls-6" d="M112.67,56.44a2.89,2.89,0,0,1-1.85.78c-.3,0-.46-.47-.16-.61a4.93,4.93,0,0,0,1.17-.69,3.45,3.45,0,0,0,.5-.51,1.44,1.44,0,0,0,.18-.25l0-.07a2.91,2.91,0,0,0-.27-.24l-.39-.36a9.23,9.23,0,0,1-.73-.8A9,9,0,0,1,110,51.76c-.18-.41.37-.77.61-.36a10.36,10.36,0,0,0,1.26,1.75,10.21,10.21,0,0,0,.73.74,4.3,4.3,0,0,1,.81.72C113.84,55.27,113.13,56,112.67,56.44Z"/><path class="cls-10" d="M114.45,66.48a5.45,5.45,0,0,1-4,2,6.27,6.27,0,0,1-5.82-4C106.7,64.14,111.61,63.87,114.45,66.48Z"/><path class="cls-6" d="M104.47,47.51a3.9,3.9,0,0,0-2.19-.21A3.75,3.75,0,0,0,99.17,50c0,.16.14.29.27.16a5,5,0,0,1,1.34-1,6,6,0,0,1,1.67-.64,3.43,3.43,0,0,1,1.56.11c.26.09.51.21.76.3s.47.24.73.31a.24.24,0,0,0,.3-.24A2,2,0,0,0,104.47,47.51Z"/><path class="cls-6" d="M117.22,47.33a3.9,3.9,0,0,1,2.19-.21,3.74,3.74,0,0,1,3.11,2.69c0,.15-.15.29-.27.16a5.41,5.41,0,0,0-1.34-1,5.93,5.93,0,0,0-1.67-.63,3.18,3.18,0,0,0-1.56.11c-.26.08-.51.21-.76.3s-.47.24-.73.31a.25.25,0,0,1-.31-.24A2.06,2.06,0,0,1,117.22,47.33Z"/><path class="cls-6" d="M93.51,45.31c.14-2.31.53-5,2.55-6.15.63-.37,1.62-.42,2,.24a1.63,1.63,0,0,1,.11.73A19,19,0,0,1,98,42.85a20.55,20.55,0,0,1-.68,2.89c-.58,2-1,6.94-2.95,8C92.7,51.81,93.51,47.73,93.51,45.31Z"/><path class="cls-6" d="M100,41.1a2.87,2.87,0,0,0,4.43-1.73,18.55,18.55,0,0,0,4,3.76,6.82,6.82,0,0,0,3.14,1.34,3.08,3.08,0,0,0,3-1.36c1.64,1.9,3.37,3.87,5.69,4.84s5.42.56,6.76-1.56c2.25,2.39,6.57,2.08,8.74-.39a7.47,7.47,0,0,0,.14-9.1,9.56,9.56,0,0,0-8.71-3.53A8.94,8.94,0,0,0,115.38,21c-1.67.83-3,2.16-4.74,2.95-2.16-3.59-6-6.38-10.21-6.33a9.77,9.77,0,0,0-8.64,5.79A9.78,9.78,0,0,0,93.6,33.61a11.16,11.16,0,0,0-5.87,8.59c-.34,3.25,1,9.3,5.37,8.25C97,49.51,100.11,45,100,41.1Z"/></g></svg>