<svg xmlns="http://www.w3.org/2000/svg" display="none">

    <symbol viewBox="0 0 38 33" id="logo">
        <g>
            <path fill-rule="evenodd" clip-rule="evenodd" d="M36.4817 8.9902C36.4506 9.01852 36.4275 9.03534 36.4275 9.03534C36.4114 9.079 36.3824 9.11671 36.3443 9.14336C36.2922 9.1673 36.2351 9.17831 36.1778 9.17546C36.1512 9.21396 36.1151 9.24491 36.073 9.2653C36.0132 9.29144 35.9307 9.28403 35.8519 9.31944C35.6728 9.3996 35.4832 9.48624 35.3392 9.54663C35.0337 9.67518 35.0104 9.66547 35.0104 9.66547C35.0104 9.66547 34.8489 9.93098 34.7031 10.0064C34.5737 10.0691 34.4257 10.081 34.288 10.0399C34.2073 10.0386 34.1274 10.0242 34.0513 9.99727C33.9642 9.9606 33.8823 9.88238 33.7856 9.87354C33.7323 9.86634 33.6782 9.87084 33.6268 9.88672C33.5755 9.90261 33.5282 9.92948 33.4883 9.96549C33.4883 9.96549 32.0176 10.9218 30.7096 11.3087C29.5298 11.6576 28.9897 11.5618 28.445 11.5504C28.0777 11.5426 27.8147 11.5476 27.8147 11.5476C27.8147 11.5476 27.8585 12.2059 27.8367 12.5826C27.8267 12.7576 27.7713 12.805 27.7477 12.8172C27.673 12.8564 27.566 12.758 27.5358 12.7387C27.4646 12.7287 27.3923 12.7304 27.3216 12.7438C27.257 12.7623 27.191 12.7758 27.1244 12.7844C27.0724 12.7791 27.0214 12.7675 26.9722 12.75C26.9237 12.7365 26.7464 12.7364 26.6489 12.7213C26.4891 12.6742 26.335 12.6091 26.1897 12.5275C26.1058 12.4773 26.111 12.507 26.0259 12.4863C25.9546 12.4724 25.8809 12.4761 25.8113 12.497C25.7188 12.5118 25.729 12.5717 25.7161 12.5949C25.6711 12.6559 25.6177 12.7103 25.5576 12.7563C25.533 12.7613 25.3717 12.8213 25.3412 12.8261C25.2877 12.8262 25.2344 12.8204 25.1822 12.809C25.1324 12.7847 25.0878 12.7509 25.051 12.7094C25.0095 12.6753 24.9629 12.6477 24.913 12.6277C24.8764 12.6146 24.7892 12.6653 24.7519 12.6875C24.7003 12.743 24.6607 12.8084 24.6354 12.8798C24.6148 12.9328 24.5661 12.9369 24.4969 12.9884C24.4276 13.0394 24.3122 13.0058 24.2762 12.9926C24.2196 12.9743 24.1581 12.9787 24.1045 13.0047C24.0087 13.0448 23.92 13.1 23.8418 13.1683C23.7786 13.2554 23.6992 13.3295 23.6079 13.3866C23.5084 13.4426 23.5543 13.3372 23.4605 13.3995C23.3671 13.462 23.2232 13.7244 23.2232 13.7244C23.2137 13.793 23.1927 13.8594 23.161 13.921C23.0791 14.0814 22.9786 14.2316 22.8615 14.3684C22.7188 14.5345 22.5308 14.6556 22.3205 14.7167C22.3205 14.7167 22.3998 14.8622 22.3597 14.9309C22.3307 14.98 22.2539 14.9584 22.2011 14.9786C22.1653 14.996 22.1365 15.025 22.1192 15.0608C22.1192 15.0608 22.2365 15.1018 22.2276 15.1661C22.2076 15.3081 22.287 15.8359 22.2256 16.1342C22.2029 16.2454 22.2686 16.3016 22.2691 16.4444C22.2604 16.6116 22.2253 16.7763 22.1652 16.9325C22.1392 16.9969 22.0915 17.0501 22.0304 17.0832C21.9694 17.1163 21.8987 17.127 21.8306 17.1136C21.8306 17.1136 22.0891 17.6734 22.273 18.1534C22.3436 18.3372 22.3653 18.4767 22.4084 18.6122C22.4672 18.7983 22.5345 18.95 22.5345 18.95C22.5759 19.1188 22.6044 19.2905 22.6199 19.4636C22.6461 19.7306 22.6513 19.9993 22.6354 20.2671C22.5835 20.7407 22.4822 21.2075 22.3331 21.66C22.3071 21.7408 22.2882 21.8236 22.2765 21.9077C22.3145 21.9205 22.3491 21.942 22.3776 21.9704C22.4061 21.9987 22.4277 22.0333 22.4407 22.0713C22.5029 22.257 22.5464 22.4484 22.5705 22.6427C22.602 22.7435 22.6207 22.848 22.6263 22.9535C22.6201 23.1307 22.5982 23.3071 22.5609 23.4805C22.5609 23.4805 22.7937 23.2564 22.9109 23.3086C22.9392 23.3192 22.9648 23.3361 22.9858 23.3579C23.0067 23.3798 23.0226 23.4061 23.0321 23.4348C23.0415 23.4636 23.0445 23.4941 23.0406 23.5241C23.0368 23.5542 23.0262 23.583 23.0098 23.6084C23.0883 23.581 23.1719 23.5711 23.2546 23.5793C23.3196 23.5958 23.3769 23.6339 23.4173 23.6874C23.4173 23.6874 23.4782 23.7932 23.458 23.8533C23.4387 23.9103 23.3392 23.9196 23.3249 23.9826C23.3101 24.0443 23.3048 24.1079 23.3092 24.1712C23.338 24.2356 23.3543 24.3048 23.3574 24.3753C23.3511 24.4704 23.3294 24.5639 23.2932 24.6522C23.3338 24.6925 23.3656 24.741 23.3864 24.7944C23.4109 24.8752 23.4246 24.959 23.4272 25.0434C23.4563 25.1322 23.4717 25.225 23.4726 25.3185C23.4788 25.4563 23.4014 25.6357 23.4018 25.7914C23.4032 25.942 23.4293 26.0913 23.479 26.2335C23.4352 26.1957 23.3964 26.1525 23.3636 26.1049C23.3255 26.047 23.2919 25.9862 23.2631 25.9232C23.2586 26.0136 23.267 26.1043 23.2879 26.1924C23.3238 26.3114 23.3722 26.4264 23.4324 26.5352C23.3807 26.5535 23.3257 26.5602 23.2712 26.5549C23.1877 26.5389 23.1066 26.5119 23.0302 26.4745C23.0593 26.5801 23.1 26.6821 23.1516 26.7787C23.2099 26.8772 23.28 26.9683 23.3602 27.05C23.2775 27.0252 23.202 26.9811 23.1398 26.9212C23.0534 26.8296 22.978 26.7283 22.9153 26.6191C22.9096 26.7202 22.8953 26.8206 22.8727 26.9192C22.8474 27.017 22.8121 27.112 22.7673 27.2025C22.7906 27.1318 22.8006 27.0574 22.7966 26.983C22.7907 26.949 22.7774 26.9167 22.7576 26.8884C22.7378 26.86 22.712 26.8365 22.682 26.8193C22.6035 26.7751 22.6313 27.0553 22.6313 27.0553C22.6028 26.9782 22.5848 26.8977 22.5778 26.8158C22.5465 26.8891 22.5254 26.9663 22.5151 27.0452C22.5312 26.7428 22.3747 26.8566 22.3747 26.8566C22.3458 26.87 22.3213 26.8914 22.3041 26.9182C22.2868 26.945 22.2775 26.9761 22.2773 27.008C22.2773 27.008 22.305 27.2852 22.3345 27.5168C22.3619 27.7378 22.3914 27.9128 22.3936 27.9389C22.3978 27.9926 23.094 28.0457 23.1799 28.0546C23.3207 28.0497 23.4616 28.0564 23.6013 28.0747C23.8078 28.111 23.7513 28.1685 23.6343 28.1885C23.5108 28.2087 23.3851 28.2125 23.2606 28.1999C23.1937 28.1856 23.2164 28.2281 23.1607 28.2499C23.1048 28.2721 22.6704 28.2576 22.5596 28.2776C22.3362 28.2952 22.1114 28.2756 21.8945 28.2195C21.8032 28.1928 21.787 27.9487 21.787 27.9487C21.787 27.9487 21.6886 27.6448 21.5594 27.2454C21.4427 26.8842 21.3001 26.4446 21.1831 26.0815C21.0427 25.646 20.9491 25.3524 20.9491 25.3524C20.9491 25.3524 20.9585 25.6712 20.9501 26.0182C20.9307 26.3034 20.9258 26.5894 20.9355 26.8751C20.9745 27.3463 21.0509 27.8136 21.1641 28.2727C21.1768 28.3446 21.207 28.4122 21.252 28.4697C21.297 28.5271 21.3554 28.5726 21.4222 28.6021C21.4766 28.6218 21.975 28.7302 22.074 28.7036C22.1404 28.6883 22.2093 28.6866 22.2764 28.6987C22.2764 28.6987 22.3418 28.7483 22.3841 28.7736C22.4262 28.7988 22.4362 28.8646 22.3068 28.8897C22.1773 28.9155 21.8477 28.8777 21.701 28.8728C21.5876 28.8684 21.4741 28.8787 21.3633 28.9035C21.2746 28.9067 21.1858 28.9001 21.0986 28.8837C21.4016 29.3666 21.7456 29.747 22.1293 29.9928C25.2353 31.9833 30.8007 28.8413 34.5601 22.975C38.04 17.5447 39.231 10.4547 36.4817 8.9902ZM31.1116 19.5429C30.9724 19.3643 30.8034 19.2111 30.6121 19.09C30.3115 18.9056 29.9656 18.8084 29.6129 18.8093C29.1853 18.8014 28.7687 18.9457 28.4376 19.2163C28.0164 19.5596 27.8058 20.0303 27.8058 20.6285C27.8058 21.2235 28.0164 21.6926 28.4376 22.0359C28.7687 22.3066 29.1853 22.4508 29.6129 22.4428C29.9655 22.4437 30.3115 22.3466 30.6121 22.1623C30.8036 22.0414 30.9726 21.8882 31.1116 21.7093V23.7877C30.6126 23.9984 30.0784 24.1128 29.5369 24.1251C28.7123 24.131 27.912 23.8452 27.2777 23.3182C26.4299 22.6303 26.0061 21.7338 26.0062 20.6285C26.0062 19.5201 26.43 18.6219 27.2777 17.934C27.9168 17.4053 28.7222 17.1195 29.5516 17.1271C30.0145 17.1271 30.5345 17.2396 31.1116 17.4645L31.1116 19.5429Z" fill="#0052A4"/>
            <path fill-rule="evenodd" clip-rule="evenodd" d="M22.881 6.07373C22.881 5.66711 22.6715 5.4279 22.2524 5.35609C22.025 5.33062 21.7962 5.32031 21.5675 5.32523H21.1943V6.8017H21.5981C22.0614 6.8017 22.3851 6.74702 22.5692 6.63766C22.6686 6.58203 22.7504 6.49977 22.8055 6.40013C22.8606 6.30049 22.8867 6.18744 22.881 6.07373Z" fill="#006BB6"/>
            <path fill-rule="evenodd" clip-rule="evenodd" d="M22.1999 3.71031C22.3099 3.58424 22.3683 3.42127 22.3632 3.25404C22.3632 2.93617 22.2203 2.72599 21.9344 2.62351C21.8018 2.58525 21.6641 2.56795 21.5261 2.57223H21.1943V3.94105H21.5261C21.8392 3.94105 22.0638 3.86414 22.1999 3.71031Z" fill="#006BB6"/>
            <path fill-rule="evenodd" clip-rule="evenodd" d="M7.10692 8.25418C7.17427 8.19733 7.24705 8.14725 7.32419 8.10464C7.32419 8.10464 7.64826 7.91787 7.81539 8.00072C8.00163 8.0927 8.13805 8.35284 8.25586 8.50716C8.30325 8.5745 8.36871 8.62707 8.44469 8.65881C8.78976 8.71822 9.13814 8.75643 9.48788 8.7732C10.2563 8.81981 11.0498 8.69727 12.3071 9.0305C12.9356 9.19742 13.4715 9.47106 13.8602 9.66103C14.0455 9.7546 14.2402 9.82847 14.4409 9.88145C14.4486 9.87278 14.4585 9.86639 14.4696 9.86299C14.4807 9.8596 14.4925 9.85932 14.5037 9.8622C14.5316 9.86642 14.5664 9.91378 14.6107 9.92069C14.7063 9.93571 14.8487 9.84945 15.0102 9.87444C15.1532 9.89668 15.4005 10.0386 15.5844 10.0681C15.6576 10.0802 15.7469 10.0452 15.825 10.0579C16.0135 10.0876 16.7516 10.037 16.9638 10.071C17.4624 10.1511 18.1863 10.3024 18.8874 10.3926C19.4582 10.4656 20.0181 10.4763 20.389 10.5523C21.4801 10.7764 21.5861 10.9879 21.5861 10.9879C21.88 10.8988 22.1788 10.8273 22.4812 10.7739C22.2866 10.8113 22.6423 10.7275 22.9622 10.7C23.2142 10.6783 23.3713 10.7253 23.7202 10.6634C24.0767 10.5998 24.3475 10.5132 24.6328 10.4393C24.989 10.3475 25.3207 10.2746 25.3207 10.2746C25.3207 10.2746 25.9915 10.1076 26.5937 10.0306C26.9685 9.98261 27.3531 9.92927 27.5119 9.93206C27.5192 9.93151 27.5265 9.93258 27.5333 9.93518C27.5401 9.93777 27.5463 9.94184 27.5514 9.94708C27.5564 9.95232 27.5603 9.95861 27.5626 9.96551C27.565 9.97241 27.5658 9.97974 27.5651 9.987C27.5651 9.987 27.6099 10.0213 27.7348 9.99887C27.8314 9.97224 27.9311 9.95879 28.0313 9.9589C28.142 9.96668 28.3227 10.0133 28.4643 10.0127C28.8229 10.0103 29.1807 9.97702 29.5336 9.91318C29.9505 9.83686 30.3862 9.72408 30.8237 9.6316C31.3511 9.51977 31.8733 9.42697 32.2634 9.31833C32.5603 9.24181 32.8493 9.1377 33.1269 9.00736C33.1269 9.00736 33.7738 8.67558 34.1047 8.57701C34.5928 8.43697 35.0908 8.33423 35.5945 8.26968C35.6798 8.23674 35.7687 8.2138 35.8592 8.20129C35.8788 8.19911 35.8984 8.19747 35.9179 8.19618C35.9555 8.13566 35.9924 8.07483 36.0282 8.0134C37.9751 4.66636 29.1402 0.245772 20.7464 0.0127905C12.3527 -0.220191 5.4602 2.75758 5.35179 6.66395C5.33156 7.39358 5.56676 8.0694 6.01711 8.68773C6.23083 8.69058 6.44365 8.65945 6.6476 8.59552C6.79821 8.54446 6.96456 8.37518 7.10692 8.25418ZM19.3748 1.18801H22.0816C23.3941 1.18801 24.0503 1.79637 24.0503 3.01309C24.0615 3.33269 23.9872 3.64948 23.835 3.93074C23.7003 4.15394 23.5094 4.33782 23.2813 4.46392C23.8398 4.58017 24.2212 4.80404 24.4255 5.13552C24.614 5.4569 24.7095 5.82431 24.7014 6.19679C24.7014 6.71966 24.5527 7.14515 24.2553 7.47326C23.8247 7.94844 23.1685 8.18599 22.2867 8.18592H19.3748V1.18801Z" fill="#006BB6"/>
            <path fill-rule="evenodd" clip-rule="evenodd" d="M9.42773 21.5207H10.9452L10.1915 19.2906L9.42773 21.5207Z" fill="#008AD0"/>
            <path fill-rule="evenodd" clip-rule="evenodd" d="M20.2915 28.2959C20.2915 28.2959 20.1985 27.8987 20.0864 27.3921C20.0061 27.0279 19.9423 26.5727 19.8699 26.2446C19.8261 26.0415 19.7717 25.8408 19.7071 25.6433C19.6715 25.4341 19.648 25.2231 19.6366 25.0112C19.6293 24.7952 19.6343 24.5789 19.6516 24.3634C19.6532 24.3159 19.6519 23.9949 19.6422 23.9171C19.6325 23.8398 19.4638 23.5724 19.4228 23.5174C19.3779 23.4474 19.3413 23.3724 19.3137 23.2939C19.2972 23.2456 19.3295 23.1875 19.35 23.1287C19.3704 23.07 19.261 23.0486 19.2496 23.0242C19.2238 22.9879 19.1915 22.9566 19.1543 22.9319C19.113 22.9011 18.981 22.8072 18.9395 22.7763C18.8911 22.7475 18.8488 22.7097 18.8146 22.665C18.7911 22.6227 18.8561 22.5178 18.9056 22.4957C18.9556 22.4735 19.049 22.4171 19.049 22.4171C19.0378 22.3747 19.0207 22.3341 18.998 22.2966C18.9633 22.2421 19.0322 22.1967 19.0322 22.1967C19.0362 22.1607 19.0333 22.1243 19.0235 22.0895C19.007 22.0295 19.0323 22.0127 18.9904 21.9754C18.9486 21.9385 18.9516 21.8491 18.9728 21.7786C18.9797 21.7219 18.9663 21.6646 18.935 21.6169C18.935 21.6169 18.8001 21.5072 18.8897 21.393C19.0964 21.1294 19.6437 21.2183 19.7425 21.097C19.7652 21.0692 19.7489 20.9717 19.4251 20.8275C19.2165 20.7352 19.0151 20.6277 18.8224 20.5058C18.458 20.2653 18.4705 20.1887 18.4271 20.1435C18.3502 20.0639 18.3099 19.6167 18.2572 19.5495C18.2043 19.4824 18.2007 19.4108 18.1547 19.3146C18.109 19.2176 18.1896 19.1906 18.1253 19.1052C18.0604 19.0198 18.1109 18.9799 18.1133 18.9088C18.1178 18.8375 18.0961 18.767 18.0523 18.7106C18 18.6316 18.0607 18.6394 18.0677 18.6098C18.0751 18.5805 18.0162 18.519 17.9578 18.4222C17.9001 18.3249 17.972 18.3749 17.9869 18.2923C18.0019 18.2096 17.947 18.1957 17.9743 18.1194C18.0015 18.0431 18.0394 17.4501 18.0412 17.3965C17.9791 17.0858 17.9443 16.7703 17.9372 16.4536C17.9465 16.056 17.9886 15.6599 18.0631 15.2692C18.0631 15.2692 17.9845 14.7745 18.0195 14.606C18.0628 14.3894 18.1666 14.1895 18.319 14.0296C18.319 14.0296 18.2267 13.9318 18.2399 13.8587C18.2689 13.7638 18.3222 13.678 18.3943 13.6098C18.3711 13.5596 18.3567 13.5058 18.3517 13.4507C18.3434 13.3856 18.3796 13.3276 18.3758 13.2597C18.37 13.1932 18.3535 13.128 18.3269 13.0667C18.3269 13.0667 18.1609 13.0311 17.9468 12.9621C17.7676 12.9039 17.5551 12.8151 17.3755 12.7713C17.2514 12.7413 17.1233 12.7318 16.9962 12.7429C16.9962 12.7429 16.8512 12.7813 16.6393 12.842C16.4958 12.8977 16.3459 12.9353 16.193 12.9538C15.9184 12.9656 15.6075 12.9181 15.313 12.9048C14.7188 12.8782 14.1942 12.8635 14.1942 12.8635C14.1942 12.8635 14.075 12.8479 14.0655 12.7898C13.9923 12.3404 14.0395 11.6275 14.0395 11.6275C14.0395 11.6275 13.8494 11.5272 13.5409 11.338C13.392 11.2465 13.2405 11.0897 13.0223 10.9985C12.4431 10.7572 11.598 10.5994 10.8156 10.3751C10.1906 10.1963 9.56688 9.99716 9.01003 9.90017C8.51592 9.81266 8.01558 9.76494 7.51384 9.75747C7.11372 9.73226 6.7167 9.67095 6.32762 9.57427C6.01101 9.49405 5.69952 9.39481 5.39486 9.27709C5.32073 9.24098 5.24892 9.20028 5.17985 9.15522C5.12829 9.1306 5.0744 9.11119 5.01898 9.09726C4.9973 9.08763 4.97795 9.07345 4.96223 9.05569C4.94651 9.03792 4.93479 9.01698 4.92787 8.99429C4.91367 8.94412 4.90645 8.89223 4.90641 8.84009C4.27998 8.85376 3.66053 8.9747 3.07495 9.19765C-1.20742 10.92 -0.844901 18.7646 3.09536 25.1554C7.03562 31.5463 13.1143 34.1891 17.3439 32.3409C18.8343 31.6896 19.8384 30.4139 20.4643 28.7838C20.4192 28.7766 20.3758 28.7616 20.3359 28.7393C20.2883 28.7048 20.2915 28.2959 20.2915 28.2959ZM11.888 24.1251L11.4369 22.9051H8.92484L8.44294 24.1251H6.52043L9.21195 17.1272H11.1959L13.831 24.1251H11.888Z" fill="#008AD0"/>
        </g>
    </symbol>

    <symbol viewBox="0 0 30 30" id="coin">
        <g>
            <path d="M25.6066 4.39336C22.7735 1.56023 19.0066 0 15 0C10.9934 0 7.22648 1.56023 4.39336 4.39336C1.56029 7.22648 0 10.9934 0 15C0 19.0066 1.56029 22.7735 4.39336 25.6066C7.22648 28.4398 10.9934 30 15 30C19.0066 30 22.7735 28.4398 25.6066 25.6066C28.4397 22.7735 30 19.0066 30 15C30 10.9934 28.4397 7.22648 25.6066 4.39336ZM15 28.2422C7.69822 28.2422 1.75781 22.3018 1.75781 15C1.75781 7.69822 7.69822 1.75781 15 1.75781C22.3018 1.75781 28.2422 7.69822 28.2422 15C28.2422 22.3018 22.3018 28.2422 15 28.2422Z" fill="inherit"/>
            <path d="M15.9414 14.1211H14.0585C12.9859 14.1211 12.1132 13.2485 12.1132 12.1758C12.1132 11.1032 12.9859 10.2305 14.0585 10.2305H17.8242C18.3096 10.2305 18.7031 9.83701 18.7031 9.35162C18.7031 8.86623 18.3096 8.47272 17.8242 8.47272H15.8789V6.5274C15.8789 6.04201 15.4854 5.6485 15 5.6485C14.5146 5.6485 14.1211 6.04201 14.1211 6.5274V8.47272H14.0586C12.0167 8.47272 10.3555 10.134 10.3555 12.1758C10.3555 14.2177 12.0167 15.8789 14.0586 15.8789H15.9415C17.0141 15.8789 17.8867 16.7516 17.8867 17.8242C17.8867 18.8968 17.0141 19.7695 15.9415 19.7695H12.1758C11.6904 19.7695 11.2969 20.163 11.2969 20.6484C11.2969 21.1338 11.6904 21.5273 12.1758 21.5273H14.1211V23.4727C14.1211 23.9581 14.5146 24.3516 15 24.3516C15.4854 24.3516 15.8789 23.9581 15.8789 23.4727V21.5273H15.9414C17.9833 21.5273 19.6445 19.8661 19.6445 17.8242C19.6445 15.7823 17.9833 14.1211 15.9414 14.1211Z" fill="inherit"/>
        </g>
    </symbol>

    <symbol viewBox="0 0 30 30" id="faq">
        <g>
            <path d="M25.6066 4.39336C22.7735 1.56023 19.0066 0 15 0C10.9934 0 7.22648 1.56023 4.39336 4.39336C1.56029 7.22648 0 10.9934 0 15C0 19.0066 1.56029 22.7735 4.39336 25.6066C7.22648 28.4398 10.9934 30 15 30C19.0066 30 22.7735 28.4398 25.6066 25.6066C28.4397 22.7735 30 19.0066 30 15C30 10.9934 28.4397 7.22648 25.6066 4.39336ZM15 28.2422C7.69822 28.2422 1.75781 22.3018 1.75781 15C1.75781 7.69822 7.69822 1.75781 15 1.75781C22.3018 1.75781 28.2422 7.69822 28.2422 15C28.2422 22.3018 22.3018 28.2422 15 28.2422Z" fill="inherit"/>
            <path d="M14.5565 19.458C14.4098 19.458 14.2925 19.414 14.2045 19.326C14.1165 19.238 14.0725 19.1207 14.0725 18.974V18.072C14.1018 17.2947 14.2998 16.62 14.6665 16.048C15.0478 15.476 15.5831 14.838 16.2725 14.134C16.8005 13.5913 17.1891 13.144 17.4385 12.792C17.7025 12.44 17.8565 12.0587 17.9005 11.648C17.9151 11.5893 17.9225 11.494 17.9225 11.362C17.9225 10.6873 17.6365 10.152 17.0645 9.756C16.4925 9.36 15.8251 9.162 15.0625 9.162C14.2411 9.162 13.5518 9.382 12.9945 9.822C12.4518 10.2473 12.0998 10.922 11.9385 11.846C11.8798 12.1687 11.6891 12.33 11.3665 12.33H10.3985C10.2665 12.33 10.1491 12.286 10.0465 12.198C9.95848 12.11 9.91448 11.9927 9.91448 11.846C9.94381 11.0393 10.1711 10.2987 10.5965 9.624C11.0365 8.93467 11.6451 8.392 12.4225 7.996C13.2145 7.58533 14.1165 7.38 15.1285 7.38C16.1991 7.38 17.1011 7.56333 17.8345 7.93C18.5678 8.29667 19.1105 8.78067 19.4625 9.382C19.8145 9.96867 19.9905 10.592 19.9905 11.252C19.9905 12 19.8218 12.6453 19.4845 13.188C19.1471 13.7307 18.6411 14.3613 17.9665 15.08C17.4091 15.6813 16.9911 16.1947 16.7125 16.62C16.4338 17.0307 16.2725 17.4927 16.2285 18.006C16.1991 18.4167 16.1845 18.7247 16.1845 18.93C16.1111 19.282 15.9278 19.458 15.6345 19.458H14.5565ZM14.3585 23C14.2118 23 14.0871 22.956 13.9845 22.868C13.8965 22.7653 13.8525 22.6407 13.8525 22.494V21.218C13.8525 21.0713 13.8965 20.9467 13.9845 20.844C14.0871 20.7413 14.2118 20.69 14.3585 20.69H15.7225C15.8691 20.69 15.9938 20.7413 16.0965 20.844C16.1991 20.9467 16.2505 21.0713 16.2505 21.218V22.494C16.2505 22.6407 16.1991 22.7653 16.0965 22.868C15.9938 22.956 15.8691 23 15.7225 23H14.3585Z" fill="inherit"/>
        </g>
    </symbol>

    <symbol viewBox="0 0 30 30" id="setting">
        <g>
            <path d="M28.4644 11.8518L26.3587 11.4946C26.1394 10.7864 25.8574 10.1033 25.5127 9.45154L26.7535 7.7156C27.28 6.9761 27.1985 5.96713 26.553 5.3279L24.6855 3.46035C24.3345 3.10941 23.8708 2.91513 23.3757 2.91513C22.9871 2.91513 22.6174 3.0342 22.304 3.25981L20.5618 4.50067C19.885 4.14345 19.1768 3.8489 18.4436 3.62956L18.0926 1.54894C17.9422 0.652768 17.1714 0.00100708 16.2627 0.00100708H13.6243C12.7156 0.00100708 11.9448 0.652768 11.7944 1.54894L11.4309 3.6797C10.729 3.89904 10.0459 4.18732 9.39413 4.53827L7.67073 3.29741C7.35738 3.0718 6.98136 2.95273 6.59281 2.95273C6.09773 2.95273 5.62771 3.14701 5.28303 3.49796L3.40921 5.3655C2.76998 6.00473 2.68225 7.0137 3.20867 7.7532L4.46206 9.51421C4.11738 10.1722 3.84163 10.8553 3.62855 11.5635L1.54793 11.9144C0.651761 12.0649 0 12.8357 0 13.7444V16.3828C0 17.2915 0.651761 18.0623 1.54793 18.2127L3.67869 18.5762C3.89803 19.2781 4.18631 19.9612 4.53726 20.6129L3.30267 22.3301C2.77625 23.0696 2.85772 24.0786 3.50322 24.7178L5.37076 26.5853C5.72171 26.9363 6.18546 27.1306 6.68055 27.1306C7.0691 27.1306 7.43885 27.0115 7.7522 26.7859L9.51321 25.5325C10.1462 25.8646 10.8105 26.1341 11.4936 26.3472L11.8445 28.4529C11.9949 29.3491 12.7657 30.0008 13.6744 30.0008H16.3191C17.2278 30.0008 17.9986 29.3491 18.149 28.4529L18.5063 26.3472C19.2144 26.1278 19.8975 25.8458 20.5493 25.5012L22.2852 26.742C22.5986 26.9676 22.9746 27.0867 23.3631 27.0867C23.8582 27.0867 24.322 26.8924 24.6729 26.5415L26.5405 24.6739C27.1797 24.0347 27.2674 23.0257 26.741 22.2862L25.5002 20.544C25.8448 19.886 26.1331 19.2029 26.3462 18.501L28.4519 18.15C29.3481 17.9996 29.9998 17.2288 29.9998 16.3201V13.6817C30.0123 12.773 29.3606 12.0022 28.4644 11.8518ZM28.3203 16.3201C28.3203 16.4016 28.2639 16.4705 28.1824 16.483L25.5503 16.9217C25.2181 16.9781 24.9549 17.2225 24.8735 17.5422C24.6353 18.4634 24.2718 19.347 23.783 20.168C23.6138 20.4563 23.6263 20.8135 23.8206 21.0892L25.3685 23.2701C25.4124 23.3328 25.4061 23.4268 25.3497 23.4832L23.4822 25.3507C23.4383 25.3946 23.3945 25.4009 23.3631 25.4009C23.3255 25.4009 23.2942 25.3884 23.2691 25.3696L21.0945 23.8216C20.825 23.6273 20.4615 23.6148 20.1733 23.784C19.3523 24.2728 18.4687 24.6363 17.5474 24.8745C17.2215 24.9559 16.9771 25.2254 16.927 25.5513L16.482 28.1834C16.4695 28.2649 16.4006 28.3213 16.3191 28.3213H13.6807C13.5992 28.3213 13.5303 28.2649 13.5178 28.1834L13.0791 25.5513C13.0227 25.2191 12.7783 24.9559 12.4587 24.8745C11.5625 24.6426 10.6977 24.2854 9.88922 23.8216C9.75762 23.7464 9.60721 23.7088 9.46307 23.7088C9.29386 23.7088 9.11839 23.7589 8.97425 23.8655L6.78082 25.426C6.74949 25.4448 6.71815 25.4573 6.68682 25.4573C6.66175 25.4573 6.61162 25.451 6.56775 25.4072L4.7002 23.5396C4.6438 23.4832 4.63753 23.3955 4.6814 23.3265L6.22307 21.1644C6.41734 20.8887 6.42987 20.5252 6.26067 20.2369C5.77185 19.4222 5.39583 18.5386 5.15769 17.6174C5.06995 17.2977 4.80674 17.0533 4.48086 16.9969L1.82994 16.5457C1.74847 16.5332 1.69207 16.4642 1.69207 16.3828V13.7444C1.69207 13.6629 1.74847 13.594 1.82994 13.5815L4.44326 13.1428C4.7754 13.0864 5.04488 12.842 5.12635 12.5161C5.35823 11.5948 5.71544 10.7049 6.198 9.88396C6.3672 9.59568 6.3484 9.23847 6.15413 8.96899L4.59366 6.77556C4.54979 6.71289 4.55606 6.61889 4.61246 6.56249L6.48001 4.69494C6.52388 4.65107 6.56775 4.6448 6.59908 4.6448C6.63668 4.6448 6.66802 4.65734 6.69309 4.67614L8.85518 6.2178C9.13092 6.41208 9.4944 6.42461 9.78268 6.25541C10.5974 5.76659 11.481 5.39057 12.4023 5.15243C12.7219 5.06469 12.9663 4.80148 13.0227 4.4756L13.4739 1.82468C13.4864 1.74321 13.5554 1.68681 13.6368 1.68681H16.2752C16.3567 1.68681 16.4256 1.74321 16.4382 1.82468L16.8769 4.438C16.9333 4.77014 17.1777 5.03962 17.5035 5.12109C18.4499 5.35923 19.3523 5.72898 20.1921 6.22407C20.4803 6.39328 20.8376 6.38074 21.1133 6.18647L23.2754 4.63227C23.3067 4.61347 23.3381 4.60094 23.3694 4.60094C23.3945 4.60094 23.4446 4.6072 23.4885 4.65107L25.356 6.51862C25.4124 6.57502 25.4187 6.66276 25.3748 6.73169L23.8269 8.90632C23.6326 9.1758 23.6201 9.53928 23.7893 9.82756C24.2781 10.6485 24.6416 11.5322 24.8797 12.4534C24.9612 12.7793 25.2307 13.0237 25.5566 13.0738L28.1887 13.5188C28.2701 13.5313 28.3265 13.6003 28.3265 13.6817V16.3201H28.3203Z" fill="inherit"/>
            <path d="M15.003 8.5231C11.4309 8.5231 8.5293 11.4247 8.5293 14.9968C8.5293 18.569 11.4309 21.4706 15.003 21.4706C18.5752 21.4706 21.4768 18.569 21.4768 14.9968C21.4768 11.4247 18.5752 8.5231 15.003 8.5231ZM15.003 19.7785C12.3647 19.7785 10.2214 17.6352 10.2214 14.9968C10.2214 12.3585 12.3647 10.2152 15.003 10.2152C17.6414 10.2152 19.7847 12.3585 19.7847 14.9968C19.7847 17.6352 17.6414 19.7785 15.003 19.7785Z" fill="inherit"/>
        </g>
    </symbol>

    <symbol viewBox="0 0 46 46" id="training">
            <g clip-path="url(#clip0)">
                <path d="M39.6268 17.2538L39.2918 17.25C34.62 17.25 30.4167 19.8615 28.2792 23.9511C26.9346 23.3446 25.4767 22.9999 23.9587 22.9999C21.4509 22.9999 19.0926 23.894 17.2255 25.4512C17.1894 23.805 16.975 22.1654 16.7657 20.7089C16.5865 19.4636 16.4146 18.2553 16.4033 17.2492L21.2485 17.25C22.0159 17.25 22.7384 16.9506 23.2812 16.4077L27.1145 12.5744C28.2101 11.4788 28.2177 9.72149 27.1718 8.59541C27.5371 8.04791 27.7111 7.39215 27.6442 6.72256C27.559 5.8625 27.0977 5.09327 26.378 4.61405L24.0514 3.06338C22.9275 2.31374 21.6182 1.91699 20.2659 1.91699C17.4471 1.91699 14.7977 3.01477 12.8043 5.0081C9.13285 8.67941 6.24388 12.8833 4.21498 17.5036C1.77055 23.0701 0.531448 27.1767 0.531448 29.7081C0.531448 31.1587 0.406028 32.3369 0.158064 33.2111C-0.371646 35.0781 0.46218 37.0696 2.18517 38.0541C9.08712 41.9978 16.9371 44.0829 24.8862 44.0829H26.2722C31.1995 44.0829 36.0678 43.293 40.7425 41.7349L41.4135 41.5103C44.1565 40.5968 46.0001 38.0392 46.0001 35.1474V23.9667C46 20.358 43.141 17.3464 39.6268 17.2538ZM44.0833 35.1474C44.0833 37.2128 42.7666 39.0396 40.806 39.6928L40.135 39.9174C35.6578 41.4092 30.9935 42.1663 26.2721 42.1663H24.8861C17.2701 42.1663 9.74863 40.1692 3.13588 36.3901C2.17942 35.8436 1.71341 34.7514 2.00163 33.7341C2.29828 32.6906 2.44805 31.3355 2.44805 29.708C2.44805 27.4751 3.66559 23.5221 5.97058 18.2747C7.90219 13.8725 10.6574 9.86515 14.1593 6.36319C15.7905 4.73202 17.9589 3.8336 20.2658 3.8336C21.2382 3.8336 22.1796 4.11902 22.9882 4.65808L25.3148 6.20875C25.5553 6.36876 25.7087 6.62517 25.7368 6.91159C25.7659 7.1989 25.6648 7.47966 25.4617 7.68369L22.4005 10.7449C22.0729 11.0724 21.5741 11.1529 21.1605 10.9461C20.8479 10.7898 20.6364 10.5025 20.5803 10.1572C20.5241 9.81196 20.6336 9.47218 20.8807 9.22511L21.7613 8.34448C22.1357 7.97011 22.1357 7.36367 21.7613 6.98939C21.387 6.61502 20.7805 6.61502 20.4062 6.98939L19.5256 7.87002C18.8378 8.55786 18.5317 9.50407 18.688 10.4651C18.8443 11.4253 19.433 12.2255 20.3033 12.6607C21.4544 13.2353 22.8441 13.0126 23.7556 12.1001L25.8518 10.0039C26.1109 10.3771 26.0915 10.8872 25.7593 11.2194L21.926 15.0527C21.7472 15.2315 21.5002 15.3335 21.2484 15.3335L16.7737 15.3328C16.8338 15.2333 16.8914 15.131 16.9697 15.0527C17.3441 14.6784 17.3441 14.0719 16.9697 13.6976C16.5953 13.3233 15.9889 13.3233 15.6146 13.6976C14.047 15.2652 14.428 17.9146 14.8687 20.9823C15.0971 22.5751 15.3338 24.2223 15.3338 25.8749C15.3338 29.8224 12.3466 30.6628 12.2193 30.6965C11.7101 30.8285 11.4014 31.346 11.5296 31.857C11.6381 32.2931 12.0284 32.5832 12.4579 32.5832C12.5346 32.5832 12.6132 32.5738 12.691 32.5542C13.8384 32.2675 15.7189 31.1663 16.6641 28.9076C16.6772 28.8901 16.6984 28.8836 16.7105 28.865C18.309 26.3924 21.0182 24.9166 23.9587 24.9166C26.2478 24.9166 28.404 25.8038 30.0296 27.4154C30.4059 27.7879 31.0132 27.786 31.3847 27.4097C31.7572 27.0334 31.7553 26.427 31.379 26.0546C30.9357 25.615 30.4496 25.236 29.947 24.8868C31.7483 21.3976 35.3199 19.1667 39.2917 19.1667L39.5752 19.1705C42.0609 19.236 44.0832 21.3875 44.0832 23.9667V35.1474H44.0833Z" fill="#0451A5"/>
            </g>
            <defs>
                <clipPath id="clip0">
                    <rect width="46" height="46" fill="white"/>
                </clipPath>
            </defs>
    </symbol>

    <symbol viewBox="0 0 46 46" id="calendar">
        <g>
            <path d="M41.5078 3.95312H37.2252V2.69531C37.2252 1.20912 36.0161 0 34.5299 0C33.0437 0 31.8346 1.20912 31.8346 2.69531V3.95312H16.7409V2.69531C16.7409 1.20912 15.5317 0 14.0455 0C12.5593 0 11.3502 1.20912 11.3502 2.69531V3.98637C11.2739 3.96525 11.1938 3.95312 11.1107 3.95312H7.53097C5.05398 3.95312 3.03879 5.96832 3.03879 8.44531V23.7487C3.03879 24.2449 3.44111 24.6471 3.93722 24.6471C4.43334 24.6471 4.83566 24.2449 4.83566 23.7487V13.207H37.2252C37.7213 13.207 38.1237 12.8048 38.1237 12.3086C38.1237 11.8124 37.7213 11.4102 37.2252 11.4102H4.83566V8.44531C4.83566 6.95912 6.04478 5.75 7.53097 5.75H11.1107C11.1938 5.75 11.2739 5.73778 11.3502 5.71676V6.87305C11.3502 8.35924 12.5593 9.56836 14.0455 9.56836C15.5317 9.56836 16.7409 8.35924 16.7409 6.87305V5.75H31.8346V6.87305C31.8346 8.35924 33.0437 9.56836 34.5299 9.56836C36.0161 9.56836 37.2252 8.35924 37.2252 6.87305V5.75H41.5078C42.994 5.75 44.2031 6.95912 44.2031 8.44531V42.5854C44.2031 43.4774 43.4775 44.2031 42.5854 44.2031C41.6933 44.2031 40.9677 43.4774 40.9677 42.5854V40.2612C40.9677 39.765 40.5654 39.3628 40.0692 39.3628H29.6185C29.1224 39.3628 28.7201 39.765 28.7201 40.2612C28.7201 40.7574 29.1224 41.1597 29.6185 41.1597H39.1708V42.5854C39.1708 43.1704 39.3189 43.7213 39.5791 44.2031H3.41406C2.52236 44.2031 1.79688 43.4776 1.79688 42.5859V41.1597H21.9062C22.4023 41.1597 22.8046 40.7574 22.8046 40.2612C22.8046 39.765 22.4023 39.3628 21.9062 39.3628H12.9293C14.4993 38.0107 15.4962 36.0108 15.4962 33.7812C15.4962 29.719 12.1913 26.4141 8.12897 26.4141C4.06669 26.4141 0.761785 29.719 0.761785 33.7812C0.761785 36.0108 1.75869 38.0107 3.32862 39.3628H0.898438C0.40232 39.3628 0 39.765 0 40.2612V42.5859C0 44.4684 1.53157 46 3.41406 46H42.5854C44.4682 46 46 44.4683 46 42.5854V8.44531C46 5.96832 43.9848 3.95312 41.5078 3.95312ZM14.944 6.87305C14.944 7.36845 14.5409 7.77148 14.0455 7.77148C13.5501 7.77148 13.1471 7.36845 13.1471 6.87305V2.69531C13.1471 2.19991 13.5501 1.79688 14.0455 1.79688C14.5409 1.79688 14.944 2.19991 14.944 2.69531V6.87305ZM35.4284 6.87305C35.4284 7.36845 35.0253 7.77148 34.5299 7.77148C34.0345 7.77148 33.6315 7.36845 33.6315 6.87305V2.69531C33.6315 2.19991 34.0345 1.79688 34.5299 1.79688C35.0253 1.79688 35.4284 2.19991 35.4284 2.69531V6.87305ZM2.55866 33.7812C2.55866 30.7098 5.05748 28.2109 8.12897 28.2109C11.2005 28.2109 13.6993 30.7098 13.6993 33.7812C13.6993 36.8527 11.2005 39.3516 8.12897 39.3516C5.05748 39.3516 2.55866 36.8527 2.55866 33.7812Z" fill="#0451A5"/>
            <path d="M42.0746 11.6734C41.9076 11.5063 41.6758 11.4102 41.4395 11.4102C41.2031 11.4102 40.9714 11.5063 40.8043 11.6734C40.6372 11.8405 40.5411 12.0723 40.5411 12.3086C40.5411 12.5449 40.6371 12.7767 40.8043 12.9438C40.9715 13.1109 41.2031 13.207 41.4395 13.207C41.6758 13.207 41.9076 13.1109 42.0746 12.9438C42.2417 12.7767 42.338 12.5449 42.338 12.3086C42.338 12.0723 42.2418 11.8405 42.0746 11.6734Z" fill="#0451A5"/>
            <path d="M26.8318 39.6256C26.6647 39.4585 26.4329 39.3633 26.1967 39.3633C25.9604 39.3633 25.7286 39.4585 25.5615 39.6256C25.3944 39.7936 25.2982 40.0245 25.2982 40.2608C25.2982 40.498 25.3943 40.7289 25.5615 40.8969C25.7286 41.064 25.9604 41.1593 26.1967 41.1593C26.4329 41.1593 26.6647 41.064 26.8318 40.8969C26.9989 40.7289 27.0951 40.4971 27.0951 40.2608C27.0951 40.0245 26.999 39.7936 26.8318 39.6256Z" fill="#0451A5"/>
            <path d="M20.3267 27.3125C18.4442 27.3125 16.9127 28.8441 16.9127 30.7266C16.9127 32.6091 18.4442 34.1406 20.3267 34.1406C22.2092 34.1406 23.7408 32.6091 23.7408 30.7266C23.7408 28.8441 22.2092 27.3125 20.3267 27.3125ZM20.3267 32.3438C19.435 32.3438 18.7095 31.6183 18.7095 30.7266C18.7095 29.8349 19.435 29.1094 20.3267 29.1094C21.2184 29.1094 21.9439 29.8349 21.9439 30.7266C21.9439 31.6183 21.2184 32.3438 20.3267 32.3438Z" fill="#0451A5"/>
            <path d="M28.7121 27.3125C26.8296 27.3125 25.298 28.8441 25.298 30.7266C25.298 32.6091 26.8296 34.1406 28.7121 34.1406C30.5946 34.1406 32.1262 32.6091 32.1262 30.7266C32.1262 28.8441 30.5946 27.3125 28.7121 27.3125ZM28.7121 32.3438C27.8204 32.3438 27.0949 31.6183 27.0949 30.7266C27.0949 29.8349 27.8204 29.1094 28.7121 29.1094C29.6038 29.1094 30.3293 29.8349 30.3293 30.7266C30.3293 31.6183 29.6038 32.3438 28.7121 32.3438Z" fill="#0451A5"/>
            <path d="M37.0975 27.3125C35.215 27.3125 33.6835 28.8441 33.6835 30.7266C33.6835 32.6091 35.215 34.1406 37.0975 34.1406C38.98 34.1406 40.5116 32.6091 40.5116 30.7266C40.5116 28.8441 38.98 27.3125 37.0975 27.3125ZM37.0975 32.3438C36.2058 32.3438 35.4803 31.6183 35.4803 30.7266C35.4803 29.8349 36.2058 29.1094 37.0975 29.1094C37.9892 29.1094 38.7147 29.8349 38.7147 30.7266C38.7147 31.6183 37.9892 32.3438 37.0975 32.3438Z" fill="#0451A5"/>
            <path d="M11.9413 17.9688C10.0588 17.9688 8.52722 19.5003 8.52722 21.3828C8.52722 23.2653 10.0588 24.7969 11.9413 24.7969C13.8238 24.7969 15.3553 23.2653 15.3553 21.3828C15.3553 19.5003 13.8238 17.9688 11.9413 17.9688ZM11.9413 23C11.0496 23 10.3241 22.2745 10.3241 21.3828C10.3241 20.4911 11.0496 19.7656 11.9413 19.7656C12.833 19.7656 13.5585 20.4911 13.5585 21.3828C13.5585 22.2745 12.833 23 11.9413 23Z" fill="#0451A5"/>
            <path d="M28.7121 17.9688C26.8296 17.9688 25.298 19.5003 25.298 21.3828C25.298 23.2653 26.8296 24.7969 28.7121 24.7969C30.5946 24.7969 32.1262 23.2653 32.1262 21.3828C32.1262 19.5003 30.5946 17.9688 28.7121 17.9688ZM28.7121 23C27.8204 23 27.0949 22.2745 27.0949 21.3828C27.0949 20.4911 27.8204 19.7656 28.7121 19.7656C29.6038 19.7656 30.3293 20.4911 30.3293 21.3828C30.3293 22.2745 29.6038 23 28.7121 23Z" fill="#0451A5"/>
            <path d="M37.0975 17.9688C35.215 17.9688 33.6835 19.5003 33.6835 21.3828C33.6835 23.2653 35.215 24.7969 37.0975 24.7969C38.98 24.7969 40.5116 23.2653 40.5116 21.3828C40.5116 19.5003 38.98 17.9688 37.0975 17.9688ZM37.0975 23C36.2058 23 35.4803 22.2745 35.4803 21.3828C35.4803 20.4911 36.2058 19.7656 37.0975 19.7656C37.9892 19.7656 38.7147 20.4911 38.7147 21.3828C38.7147 22.2745 37.9892 23 37.0975 23Z" fill="#0451A5"/>
            <path d="M20.3267 17.9688C18.4442 17.9688 16.9127 19.5003 16.9127 21.3828C16.9127 23.2653 18.4442 24.7969 20.3267 24.7969C22.2092 24.7969 23.7408 23.2653 23.7408 21.3828C23.7408 19.5003 22.2092 17.9688 20.3267 17.9688ZM20.3267 23C19.435 23 18.7095 22.2745 18.7095 21.3828C18.7095 20.4911 19.435 19.7656 20.3267 19.7656C21.2184 19.7656 21.9439 20.4911 21.9439 21.3828C21.9439 22.2745 21.2184 23 20.3267 23Z" fill="#0451A5"/>
            <path d="M11.3297 31.5913C10.9787 31.2404 10.41 31.2404 10.059 31.5913L7.13315 34.5172L6.13328 33.5173C5.78235 33.1665 5.21364 33.1665 4.86262 33.5173C4.51178 33.8682 4.51178 34.4371 4.86262 34.788L6.49786 36.4231C6.66641 36.5915 6.89488 36.6862 7.13315 36.6862C7.37141 36.6862 7.59989 36.5915 7.76843 36.4231L11.3297 32.8618C11.6805 32.511 11.6805 31.9421 11.3297 31.5913Z" fill="#0451A5"/>
        </g>
    </symbol>

    <symbol viewBox="0 0 46 46" id="video">
            <path d="M28.9773 18.3306L20.2532 12.7789C20.0089 12.6242 19.6996 12.6139 19.445 12.7527C19.192 12.8923 19.0342 13.1588 19.0342 13.4483V24.5517C19.0342 24.8412 19.192 25.1077 19.4458 25.2473C19.5648 25.3123 19.6956 25.3448 19.8273 25.3448C19.9756 25.3448 20.1239 25.3028 20.2532 25.2211L28.9773 19.6694C29.2057 19.5234 29.3445 19.2712 29.3445 19C29.3445 18.7288 29.2057 18.4766 28.9773 18.3306ZM20.6204 23.1075V14.8925L27.0739 19L20.6204 23.1075Z" fill="inherit"/>
            <path d="M45.2069 0.758621H37.2759H8.72414H0.793103C0.35531 0.758621 0 1.11314 0 1.55172V10.2759V19V27.7241V36.4483C0 36.8869 0.35531 37.2414 0.793103 37.2414H8.72414H37.2759H45.2069C45.6447 37.2414 46 36.8869 46 36.4483V27.7241V19V10.2759V1.55172C46 1.11314 45.6447 0.758621 45.2069 0.758621ZM7.93103 18.2069H1.58621V11.069H7.93103V18.2069ZM1.58621 19.7931H7.93103V26.931H1.58621V19.7931ZM9.51724 27.7241V19V10.2759V2.34483H36.4828V10.2759V19V27.7241V35.6552H9.51724V27.7241ZM44.4138 18.2069H38.069V11.069H44.4138V18.2069ZM38.069 19.7931H44.4138V26.931H38.069V19.7931ZM44.4138 2.34483V9.48276H38.069V2.34483H44.4138ZM1.58621 2.34483H7.93103V9.48276H1.58621V2.34483ZM1.58621 35.6552V28.5172H7.93103V35.6552H1.58621ZM44.4138 35.6552H38.069V28.5172H44.4138V35.6552Z" fill="inherit"/>
    </symbol>

    <symbol viewBox="0 0 46 46" id="list">
            <path d="M40.4075 7.12387L33.509 0.2254C33.3702 0.0858667 33.1786 0 32.9662 0H9.19954C7.08584 0 5.36621 1.71963 5.36621 3.83333V42.1667C5.36621 44.2804 7.08584 46 9.19954 46H36.7995C38.9132 46 40.6329 44.2804 40.6329 42.1667V7.66667C40.6329 7.4543 40.547 7.26263 40.4075 7.12387ZM33.7329 2.6174L38.0155 6.9H33.7329V2.6174ZM39.0995 42.1667C39.0995 43.4347 38.0676 44.4667 36.7995 44.4667H9.19954C7.93148 44.4667 6.89954 43.4347 6.89954 42.1667V3.83333C6.89954 2.56527 7.93148 1.53333 9.19954 1.53333H32.1995V7.66667C32.1995 8.09063 32.543 8.43333 32.9662 8.43333H39.0995V42.1667Z" fill="inherit"/>
            <path d="M12.2669 10.7333C10.5756 10.7333 9.2002 12.1087 9.2002 13.8C9.2002 15.4913 10.5756 16.8667 12.2669 16.8667C13.9581 16.8667 15.3335 15.4913 15.3335 13.8C15.3335 12.1087 13.9581 10.7333 12.2669 10.7333ZM12.2669 15.3333C11.4212 15.3333 10.7335 14.6456 10.7335 13.8C10.7335 12.9544 11.4212 12.2667 12.2669 12.2667C13.1125 12.2667 13.8002 12.9544 13.8002 13.8C13.8002 14.6456 13.1125 15.3333 12.2669 15.3333Z" fill="inherit"/>
            <path d="M12.2669 19.1667C10.5756 19.1667 9.2002 20.5421 9.2002 22.2333C9.2002 23.9246 10.5756 25.3 12.2669 25.3C13.9581 25.3 15.3335 23.9246 15.3335 22.2333C15.3335 20.5421 13.9581 19.1667 12.2669 19.1667ZM12.2669 23.7667C11.4212 23.7667 10.7335 23.079 10.7335 22.2333C10.7335 21.3877 11.4212 20.7 12.2669 20.7C13.1125 20.7 13.8002 21.3877 13.8002 22.2333C13.8002 23.079 13.1125 23.7667 12.2669 23.7667Z" fill="inherit"/>
            <path d="M12.2669 27.6C10.5756 27.6 9.2002 28.9754 9.2002 30.6667C9.2002 32.3579 10.5756 33.7333 12.2669 33.7333C13.9581 33.7333 15.3335 32.3579 15.3335 30.6667C15.3335 28.9754 13.9581 27.6 12.2669 27.6ZM12.2669 32.2C11.4212 32.2 10.7335 31.5123 10.7335 30.6667C10.7335 29.821 11.4212 29.1333 12.2669 29.1333C13.1125 29.1333 13.8002 29.821 13.8002 30.6667C13.8002 31.5123 13.1125 32.2 12.2669 32.2Z" fill="inherit"/>
            <path d="M12.2669 36.0333C10.5756 36.0333 9.2002 37.4087 9.2002 39.1C9.2002 40.7913 10.5756 42.1667 12.2669 42.1667C13.9581 42.1667 15.3335 40.7913 15.3335 39.1C15.3335 37.4087 13.9581 36.0333 12.2669 36.0333ZM12.2669 40.6333C11.4212 40.6333 10.7335 39.9456 10.7335 39.1C10.7335 38.2544 11.4212 37.5667 12.2669 37.5667C13.1125 37.5667 13.8002 38.2544 13.8002 39.1C13.8002 39.9456 13.1125 40.6333 12.2669 40.6333Z" fill="inherit"/>
            <path d="M36.7995 14.5667H16.8662V16.1H36.7995V14.5667Z" fill="inherit"/>
            <path d="M28.3671 3.83333H17.6338V5.36666H28.3671V3.83333Z" fill="inherit"/>
            <path d="M30.6663 6.89999H15.333V8.43333H30.6663V6.89999Z" fill="inherit"/>
            <path d="M36.7995 23H16.8662V24.5333H36.7995V23Z" fill="inherit"/>
            <path d="M36.7995 31.4333H16.8662V32.9667H36.7995V31.4333Z" fill="inherit"/>
            <path d="M36.7995 39.8667H16.8662V41.4H36.7995V39.8667Z" fill="inherit"/>
            <path d="M24.5333 11.5H23V13.0333H24.5333V11.5Z" fill="inherit"/>
            <path d="M21.4669 11.5H19.9336V13.0333H21.4669V11.5Z" fill="inherit"/>
            <path d="M18.3995 11.5H16.8662V13.0333H18.3995V11.5Z" fill="inherit"/>
    </symbol>

    <symbol viewBox="0 0 60 60" id="account">
            <g clip-path="url(#clip0)">
                <path d="M29.3 0C13.2 0 0 13.2 0 29.3C0 38.8 4.6 47.3 11.7 52.7C12.1 53 12.6 53.3 13 53.7C15.4 55.3 18.1 56.6 20.9 57.5C23.6 58.3 26.4 58.7 29.3 58.7C32 58.7 34.6 58.3 37.1 57.6C40.2 56.8 43.1 55.4 45.7 53.7C46.2 53.4 46.6 53.1 47 52.7C54.1 47.3 58.6 38.9 58.6 29.3C58.7 13.2 45.5 0 29.3 0ZM13.5 51.6L15 45.3C16.5 41.1 19.6 40.4 21.3 40.4H24.8C25.4 41.2 26.2 41.8 27 42.1C26.9 42.3 26.8 42.6 26.8 42.8V46L26.3 49.1C26.2 49.5 26.5 49.9 26.9 50H27C27.4 50 27.7 49.7 27.8 49.4L28.2 46.9H30.4L32 56.5C31.1 56.6 30.2 56.6 29.3 56.6C28.4 56.6 27.5 56.6 26.7 56.5L27.3 53C27.4 52.6 27.1 52.2 26.7 52.1C26.3 52 25.9 52.3 25.8 52.7L25.2 56.3C20.9 55.7 16.9 54 13.5 51.6ZM29.4 41.2C28 41.2 26.8 40.6 26 39.5V36.4C27.1 36.8 28.2 37 29.4 37C30.6 37 31.8 36.8 32.8 36.4V39.5C32 40.6 30.8 41.2 29.4 41.2ZM30.4 43V45.5H28.4V43C28.4 42.9 28.5 42.8 28.6 42.8H30.1C30.3 42.7 30.4 42.8 30.4 43ZM29.4 35.4C25 35.4 21.9 32.3 20.9 27C20.8 26.6 20.5 26.4 20.1 26.4H20C19.8 26.4 19.2 25.8 19 24.3C18.9 23.6 19 23 19.2 22.5C19.4 22.1 19.5 22 19.5 22C19.8 22.1 20.2 22 20.4 21.7C20.8 21.1 22.1 19.6 23.6 19.2C26.9 18.4 28.5 19.6 30.1 20.7C30.8 21.2 31.4 21.6 32.2 21.9C36.4 23.3 38.7 22.3 39.2 22C39.2 22 39.4 22.1 39.5 22.5C39.7 23 39.7 23.6 39.7 24.3C39.5 25.8 38.9 26.4 38.7 26.4C38.3 26.3 37.9 26.6 37.8 27C36.9 32.4 33.8 35.4 29.4 35.4ZM33.6 56.4L31.9 46.2V43C31.9 42.7 31.8 42.5 31.7 42.3C32.6 41.9 33.3 41.3 33.9 40.6H37.4C40.7 40.6 43 43.1 43.7 45.4L45.2 51.7C41.8 54 37.9 55.7 33.6 56.4ZM46.6 50.6L45.2 45C44.3 42 41.5 39 37.4 39H34.3V35.6C34.9 35.2 35.5 34.7 36.1 34.2C37.6 32.7 38.7 30.5 39.3 27.9C40.3 27.6 41.1 26.2 41.3 24.5C41.3 24.4 41.3 24.3 41.3 24.2C42.2 22.3 42.7 20.5 42.6 18.8C42.6 18.4 42.2 18 41.8 18.1C41.4 18.1 41 18.5 41 18.9C41 19.8 40.9 20.7 40.6 21.6C40.3 21.1 39.8 20.8 39.3 20.7C39.1 20.7 38.8 20.7 38.6 20.8C38.5 20.8 38.5 20.8 38.4 20.9C38.4 20.9 37.9 21.2 37.1 21.3C36.2 21.4 34.8 21.4 32.6 20.7C32.1 20.5 31.5 20.1 30.9 19.7C29.3 18.6 27.2 17.1 23.2 18C21.3 18.4 19.9 20 19.3 20.7H19.2C18.9 20.7 18.6 20.9 18.3 21.1C17.7 19.7 17.5 18.2 17.7 17C17.9 15.5 18.7 14.4 20 13.7C20.2 13.6 20.3 13.5 20.3 13.3C21.3 10.7 24.1 9 27.8 8.6C32.2 8.1 36.5 9.6 38.2 12.2C39.1 13.5 39.7 14.6 40.2 15.7C40.4 16.1 40.8 16.3 41.2 16.1C41.6 15.9 41.8 15.5 41.6 15.1C41.1 14 40.4 12.7 39.5 11.3C38.4 9.7 36.7 8.5 34.4 7.7C32.3 7 29.9 6.8 27.6 7C25.6 7.2 23.8 7.8 22.3 8.7C20.7 9.6 19.6 10.9 18.9 12.4C15.5 14.4 15.5 18.7 16.9 21.9C17 22.2 17.2 22.5 17.3 22.8C17.2 23.4 17.1 24 17.2 24.6C17.4 26.4 18.2 27.7 19.2 28C19.8 30.6 20.9 32.7 22.4 34.3C22.9 34.9 23.5 35.3 24.2 35.7V39H21.1C19.1 39 17.4 39.6 16 40.8C14.9 41.8 14 43.2 13.3 44.8V44.9L12 50.6C6 45.6 2 37.9 2 29.3C2 14.3 14.3 2 29.3 2C44.3 2 56.7 14.3 56.7 29.3C56.7 37.9 52.8 45.6 46.6 50.6Z" fill="inherit"/>
            </g>
            <defs>
                <clipPath id="clip0">
                    <rect width="58.7" height="58.7" fill="inherit"/>
                </clipPath>
            </defs>
    </symbol>

    <symbol viewBox="0 0 16 8" id="arr_left">
            <g>
                    <path fill-rule="evenodd" clip-rule="evenodd" d="M3.85482 0.146893C3.90138 0.193339 3.93832 0.248515 3.96353 0.30926C3.98873 0.370005 4.00171 0.435126 4.00171 0.500894C4.00171 0.566661 3.98873 0.631782 3.96353 0.692527C3.93832 0.753272 3.90138 0.808448 3.85482 0.854894L1.20782 3.50089L3.85482 6.14689C3.9487 6.24078 4.00145 6.36812 4.00145 6.50089C4.00145 6.63367 3.9487 6.76101 3.85482 6.85489C3.76093 6.94878 3.63359 7.00152 3.50082 7.00152C3.36804 7.00152 3.2407 6.94878 3.14682 6.85489L0.146815 3.85489C0.100252 3.80845 0.0633094 3.75327 0.0381029 3.69253C0.0128965 3.63178 -7.83572e-05 3.56666 -7.83543e-05 3.50089C-7.83514e-05 3.43513 0.0128965 3.37 0.038103 3.30926C0.0633094 3.24851 0.100252 3.19334 0.146815 3.14689L3.14682 0.146893C3.19326 0.10033 3.24844 0.0633872 3.30918 0.0381808C3.36993 0.0129744 3.43505 -2.47695e-08 3.50082 -2.18948e-08C3.56658 -1.902e-08 3.6317 0.0129744 3.69245 0.0381808C3.75319 0.0633873 3.80837 0.10033 3.85482 0.146893V0.146893Z" fill="inherit"/>
                    <rect x="1" y="3" width="15" height="1" rx="0.5" fill="inherit"/>
            </g>
    </symbol>

    <symbol viewBox="0 0 16 8" id="arr_right">
        <g>
            <path fill-rule="evenodd" clip-rule="evenodd" d="M12.1452 6.85506C12.0986 6.80861 12.0617 6.75344 12.0365 6.69269C12.0113 6.63195 11.9983 6.56683 11.9983 6.50106C11.9983 6.43529 12.0113 6.37017 12.0365 6.30943C12.0617 6.24868 12.0986 6.19351 12.1452 6.14706L14.7922 3.50106L12.1452 0.85506C12.0513 0.761173 11.9986 0.633835 11.9986 0.50106C11.9986 0.368284 12.0513 0.240946 12.1452 0.147059C12.2391 0.0531728 12.3664 0.000428248 12.4992 0.000428265C12.632 0.000428283 12.7593 0.0531729 12.8532 0.14706L15.8532 3.14706C15.8997 3.19351 15.9367 3.24868 15.9619 3.30943C15.9871 3.37017 16.0001 3.43529 16.0001 3.50106C16.0001 3.56683 15.9871 3.63195 15.9619 3.69269C15.9367 3.75344 15.8997 3.80861 15.8532 3.85506L12.8532 6.85506C12.8067 6.90162 12.7516 6.93857 12.6908 6.96377C12.6301 6.98898 12.565 7.00195 12.4992 7.00195C12.4334 7.00195 12.3683 6.98898 12.3076 6.96377C12.2468 6.93857 12.1916 6.90162 12.1452 6.85506V6.85506Z" fill="inherit"/>
            <rect x="15" y="4.00195" width="15" height="1" rx="0.5" transform="rotate(-180 15 4.00195)" fill="inherit"/>
        </g>
    </symbol>

    <symbol viewBox="0 0 30 22" id="menu">
        <g>
            <path d="M28.75 12.083H1.25C0.559998 12.083 0 11.523 0 10.833C0 10.143 0.559998 9.58301 1.25 9.58301H28.75C29.44 9.58301 30 10.143 30 10.833C30 11.523 29.44 12.083 28.75 12.083Z" fill="inherit"/>
            <path d="M28.75 2.5H1.25C0.559998 2.5 0 1.94 0 1.25C0 0.559998 0.559998 0 1.25 0H28.75C29.44 0 30 0.559998 30 1.25C30 1.94 29.44 2.5 28.75 2.5Z" fill="inherit"/>
            <path d="M28.75 21.667H1.25C0.559998 21.667 0 21.107 0 20.417C0 19.727 0.559998 19.167 1.25 19.167H28.75C29.44 19.167 30 19.727 30 20.417C30 21.107 29.44 21.667 28.75 21.667Z" fill="inherit"/>
        </g>
    </symbol>

    <symbol viewBox="0 0 16 16" id="close">
        <g>
            <path d="M9.76221 7.99948L15.7444 2.01704C15.9089 1.85236 15.9997 1.63265 16 1.39837C16 1.16397 15.9092 0.944 15.7444 0.779577L15.2202 0.25548C15.0553 0.0904065 14.8356 0 14.6011 0C14.367 0 14.1473 0.0904065 13.9824 0.25548L8.00026 6.23753L2.01782 0.25548C1.85327 0.0904065 1.63343 0 1.39902 0C1.16488 0 0.945041 0.0904065 0.780488 0.25548L0.256 0.779577C-0.0853333 1.12091 -0.0853333 1.6761 0.256 2.01704L6.23831 7.99948L0.256 13.9817C0.0913171 14.1466 0.000650406 14.3663 0.000650406 14.6006C0.000650406 14.8349 0.0913171 15.0546 0.256 15.2194L0.780358 15.7435C0.944911 15.9084 1.16488 15.999 1.39889 15.999C1.6333 15.999 1.85314 15.9084 2.01769 15.7435L8.00013 9.7613L13.9823 15.7435C14.1471 15.9084 14.3668 15.999 14.601 15.999H14.6012C14.8355 15.999 15.0552 15.9084 15.22 15.7435L15.7443 15.2194C15.9088 15.0547 15.9996 14.8349 15.9996 14.6006C15.9996 14.3663 15.9088 14.1466 15.7443 13.9818L9.76221 7.99948Z" fill="inherit"/>
        </g>
    </symbol>
</svg>
