<svg xmlns="http://www.w3.org/2000/svg" viewBox="0 0 534.68 473.52"><defs><style>.cls-1{fill:#a9a8c2;opacity:0.4;}.cls-2{fill:#dce2f7;}.cls-3{fill:#c5cbef;}.cls-4{fill:#585afa;}.cls-5{fill:#3836bd;}.cls-6{fill:#f5f5fd;}.cls-7{fill:#aaafd7;}.cls-10,.cls-13,.cls-8,.cls-9{fill:none;stroke-linecap:round;stroke-linejoin:round;}.cls-8{stroke:#92cdf5;}.cls-8,.cls-9{stroke-width:1.97px;}.cls-9{stroke:#3836bd;}.cls-10{stroke:#f2516c;stroke-width:4px;}.cls-11{fill:#ffc6c2;}.cls-12{fill:#ffa69b;}.cls-13{stroke:#ffdad9;stroke-width:2px;}.cls-14{fill:#472694;}.cls-15{fill:#1d0d4e;}.cls-16{fill:#d7eaee;}.cls-17{fill:#ffbe8d;}.cls-18{fill:#a3ced6;}.cls-19{fill:#f2516c;}.cls-20{fill:#f2b588;}.cls-21{fill:#db3e5f;}.cls-22{fill:#2c218a;}.cls-23{fill:#f1b488;}.cls-24{fill:#ffbf8d;}.cls-25{fill:#2f1780;}.cls-26{fill:#db3549;}</style></defs><title>zadan</title><g id="Слой_3" data-name="Слой 3"><ellipse class="cls-1" cx="284.79" cy="434.63" rx="225.91" ry="5.28"/><path class="cls-2" d="M513.84,225.15c13.4,47.56-13,119.79-73.55,100.9-17.23-5.38-32-16.57-46-27.89-17.8-14.34-37.25-31.41-60.5-35.53-30.62-5.42-62.71,3.33-89.84,17.44-55,28.58-121.75,120.55-192.73,80.83C1.48,333.08-.63,251,44.42,218.64c12.5-9,26.61-15.62,38.65-25.2,23.08-18.35,35.05-45.2,37.78-74.09,1.29-13.68,1-27.83,6.1-40.6a52.31,52.31,0,0,1,41.14-31.91c39.84-5.07,69.24,24.32,97.5,47.5,32.15,26.37,68.18,40.9,109.12,47.77,49,8.23,100.27,13.63,129,59.74A90.44,90.44,0,0,1,513.84,225.15Z"/><path class="cls-3" d="M449.08,381.05c38.06-16.94,7.77-63.3-26-51.58C382.5,343.51,408.54,399.09,449.08,381.05Z"/><path class="cls-4" d="M383.81,94.28V426.5a8.12,8.12,0,0,1-8.12,8.13H132.63a8.12,8.12,0,0,1-8.13-8.13V94.28a8.12,8.12,0,0,1,8.13-8.13H375.69A8.12,8.12,0,0,1,383.81,94.28Z"/><path class="cls-5" d="M383.81,178V426.5a8.12,8.12,0,0,1-8.12,8.13H132.63a8.12,8.12,0,0,1-8.13-8.13V314.35Z"/><polygon class="cls-6" points="324.17 408.2 145.68 408.2 145.68 110.41 362.63 110.41 362.63 368.23 324.17 408.2"/><polygon class="cls-7" points="324.17 408.2 324.17 368.23 362.63 368.23 324.17 408.2"/><line class="cls-8" x1="210.53" y1="182.43" x2="276.96" y2="182.43"/><line class="cls-8" x1="210.53" y1="202.56" x2="234.23" y2="202.56"/><line class="cls-8" x1="246.73" y1="202.56" x2="303.22" y2="202.56"/><line class="cls-8" x1="220.28" y1="192.49" x2="327.28" y2="192.49"/><line class="cls-8" x1="344.68" y1="182.43" x2="297.18" y2="182.43"/><rect class="cls-9" x="170.71" y="182.43" width="25.35" height="25.35"/><polyline class="cls-10" points="179.24 192.5 184.96 198.47 206.81 182.43"/><line class="cls-8" x1="210.53" y1="223.9" x2="232.13" y2="223.9"/><line class="cls-8" x1="210.53" y1="244.02" x2="225.82" y2="244.02"/><line class="cls-8" x1="246.73" y1="244.02" x2="315.4" y2="244.02"/><line class="cls-8" x1="220.28" y1="233.96" x2="260.38" y2="233.96"/><line class="cls-8" x1="271" y1="233.96" x2="341.22" y2="233.96"/><line class="cls-8" x1="287.84" y1="223.9" x2="246.73" y2="223.9"/><rect class="cls-9" x="170.71" y="221.57" width="25.35" height="25.35"/><polyline class="cls-10" points="179.24 232.34 184.96 238.31 206.81 222.26"/><line class="cls-8" x1="210.53" y1="265.36" x2="246.73" y2="265.36"/><line class="cls-8" x1="210.53" y1="285.49" x2="278.68" y2="285.49"/><line class="cls-8" x1="296.69" y1="285.49" x2="333.1" y2="285.49"/><line class="cls-8" x1="220.28" y1="275.43" x2="265.99" y2="275.43"/><line class="cls-8" x1="326.35" y1="275.43" x2="287.84" y2="275.43"/><line class="cls-8" x1="344.68" y1="265.36" x2="260.38" y2="265.36"/><rect class="cls-9" x="170.71" y="260.72" width="25.35" height="25.35"/><polyline class="cls-10" points="179.24 270.8 184.96 276.76 206.81 260.72"/><line class="cls-8" x1="210.53" y1="306.83" x2="276.96" y2="306.83"/><line class="cls-8" x1="210.53" y1="326.96" x2="234.23" y2="326.96"/><line class="cls-8" x1="246.73" y1="326.96" x2="303.22" y2="326.96"/><line class="cls-8" x1="220.28" y1="316.9" x2="327.28" y2="316.9"/><line class="cls-8" x1="344.68" y1="306.83" x2="297.18" y2="306.83"/><rect class="cls-9" x="170.71" y="299.86" width="25.35" height="25.35"/><polyline class="cls-10" points="179.24 309.25 184.96 315.22 206.81 299.18"/><path class="cls-11" d="M324.37,75v0H293.21a8.6,8.6,0,0,1-8.57-9.92,31,31,0,0,0-30.1-36.24,30.94,30.94,0,0,0-31.32,30.94,31.36,31.36,0,0,0,.32,4.47A9.46,9.46,0,0,1,214.12,75H183.94v0a8.52,8.52,0,0,0-8.38,8.53v26a8.54,8.54,0,0,0,4.66,7.6,8.32,8.32,0,0,0,3.72.93H324.37a8.54,8.54,0,0,0,8.39-8.53v-26A8.53,8.53,0,0,0,324.37,75ZM254.16,42.92a16.87,16.87,0,1,1-16.88,16.87A16.87,16.87,0,0,1,254.16,42.92Z"/><path class="cls-12" d="M332.76,83.56v26a8.54,8.54,0,0,1-8.39,8.53H183.94a8.32,8.32,0,0,1-3.72-.93L301,75h23.37v0A8.53,8.53,0,0,1,332.76,83.56Z"/><line class="cls-13" x1="185.72" y1="83.32" x2="322.59" y2="83.32"/><line class="cls-13" x1="185.72" y1="91.5" x2="322.59" y2="91.5"/><line class="cls-13" x1="185.72" y1="99.69" x2="322.59" y2="99.69"/><polygon class="cls-14" points="393.57 258.15 378.68 336.87 443.58 400.1 453.3 387.9 413.86 330.92 424.68 248.88 393.57 258.15"/><polygon class="cls-14" points="419.29 250.77 454.54 238.42 422.54 405.96 405.07 403.46 419.29 250.77"/><polygon class="cls-15" points="423.25 259.75 413.86 330.92 405.16 324.04 423.25 259.75"/><polygon class="cls-15" points="408.56 365.98 423.37 401.63 426.63 384.55 408.56 365.98"/><path class="cls-16" d="M397.57,144.12s15.06,19.9,28.35-2.75l28.62,11.22,11,30.31-16.66,10.76-5.39-16.83-3,28.07,16.56,39.54-63.49,13.71L376.7,180.94l-7.89,3.63-9.56-18.11,22.3-17.35Z"/><polygon class="cls-17" points="368.81 184.57 359.25 166.46 351.97 173.36 356.06 144.87 369.74 124.63 356.83 114.99 349.24 121.43 347.03 116.35 343.69 118.5 350.03 128.56 334.76 175.78 338.28 195.88 368.81 184.57"/><polygon class="cls-12" points="378.07 256.36 363.96 272.53 384.09 272.53 378.07 256.36"/><polygon class="cls-18" points="443.47 176.83 429.81 206.37 445.14 248.27 457.06 244.44 440.5 204.9 443.47 176.83"/><polygon class="cls-19" points="378.07 256.36 494.15 208.42 501.34 225.84 384.09 272.53 378.07 256.36"/><path class="cls-12" d="M494.15,208.42,497.7,207A9.42,9.42,0,0,1,510,212.09h0a9.42,9.42,0,0,1-5.13,12.31l-3.51,1.44Z"/><polygon class="cls-18" points="376.7 180.94 379.8 160.98 368.81 184.57 376.7 180.94"/><polygon class="cls-20" points="356.06 144.87 347.67 172.78 351.97 173.36 356.06 144.87"/><polygon class="cls-21" points="501.34 225.84 384.09 272.53 382.45 268.13 499.86 222.26 501.34 225.84"/><polygon class="cls-17" points="445.14 248.27 457.06 215.38 448.87 193.66 465.52 182.9 477.06 213.46 460.78 245.05 450.64 258.81 438.51 259.75 432.04 253.43 445.14 248.27"/><polygon class="cls-12" points="445.14 248.27 438.51 259.75 432.04 253.43 445.14 248.27"/><polygon class="cls-22" points="445.5 397.69 447.91 415.45 442.78 428.8 449.44 434.63 468.05 397.01 452.12 389.38 445.5 397.69"/><polygon class="cls-22" points="408.01 403.88 406.21 409.87 402.39 418.94 406.21 433.99 415.66 433.99 422.29 422.7 417.57 411.7 417.98 405.31 408.01 403.88"/><polygon class="cls-5" points="449.14 393.12 453.3 411 444.38 430.2 442.78 428.8 447.44 412 445.5 397.69 449.14 393.12"/><polygon class="cls-5" points="410 404.17 406.95 417.61 408.48 426.52 413.57 426.52 415.99 417.36 414.31 404.78 410 404.17"/><path class="cls-23" d="M395.48,112.59s-6.93-6.09-9.07-2.47,4.66,11.6,10.93,8.26"/><path class="cls-24" d="M397.37,144.07c1.39,5,5.26,12.94,15.81,11.8s12.64-9.71,12.92-14.92a114.83,114.83,0,0,0-14.52.18A114.64,114.64,0,0,0,397.37,144.07Z"/><path class="cls-24" d="M419.57,146.27H405.05v-7.8c4.87-1.16,9.7-2.51,14.52-3.88Z"/><path class="cls-23" d="M419.57,129.13v5.46c-4.82,1.37-9.65,2.72-14.52,3.88v-9.34Z"/><path class="cls-24" d="M424.83,97.84l-30.57-2.16s-4.07,32.15.92,36.38,28.18,3.36,29.65-8.09S424.83,97.84,424.83,97.84Z"/><path class="cls-14" d="M397.17,96.74,392.8,113.4s-1.83-14.08,0-17.06,4.37,0,4.37,0"/><path class="cls-24" d="M421.91,114s4.73-7.91,7.87-5.13-.87,12.47-7.87,11.22"/><path class="cls-25" d="M410.93,116.59a3.32,3.32,0,0,1,2.67-1.39,3.36,3.36,0,0,1,1.55.42,4,4,0,0,1,.69.47l.32.29a3.65,3.65,0,0,1,.36.31.32.32,0,0,0,.54-.31,4.24,4.24,0,0,0-.18-.5,2.77,2.77,0,0,0-.31-.45,3.75,3.75,0,0,0-.81-.73,4,4,0,0,0-2-.71,4.42,4.42,0,0,0-3.77,1.8C409.47,116.45,410.45,117.26,410.93,116.59Z"/><path class="cls-25" d="M399.4,116.09a2.93,2.93,0,0,0-2.37-1.42,2.48,2.48,0,0,0-1.34.41,3.55,3.55,0,0,0-.59.45l-.27.29c-.09.1-.23.19-.31.3s-.58,0-.48-.31a4.74,4.74,0,0,1,.15-.5,3.14,3.14,0,0,1,.25-.44,3.69,3.69,0,0,1,.69-.73,3.28,3.28,0,0,1,1.75-.68,3.87,3.87,0,0,1,3.35,1.83C400.68,116,399.84,116.75,399.4,116.09Z"/><path class="cls-25" d="M398.55,121.57a15.44,15.44,0,0,0,3.11,5.87,5.54,5.54,0,0,0,4.1,2,6.37,6.37,0,0,0,5.92-4.09,10.12,10.12,0,0,0,.76-2.38Z"/><path class="cls-25" d="M403.47,117.24a3,3,0,0,0,1.88.8.34.34,0,0,0,.16-.63,5.1,5.1,0,0,1-1.19-.7,4.1,4.1,0,0,1-.51-.51,2,2,0,0,1-.18-.26.18.18,0,0,0-.05-.07,2.1,2.1,0,0,1,.28-.25l.39-.36a9.61,9.61,0,0,0,.74-.82,8.59,8.59,0,0,0,1.18-2c.18-.42-.38-.79-.61-.37a10.77,10.77,0,0,1-1.29,1.78,10.46,10.46,0,0,1-.74.75,3.83,3.83,0,0,0-.82.73C402.28,116.05,403,116.83,403.47,117.24Z"/><path class="cls-26" d="M401.66,127.44a5.54,5.54,0,0,0,4.1,2,6.37,6.37,0,0,0,5.92-4.09C409.54,125.07,404.55,124.79,401.66,127.44Z"/><path class="cls-25" d="M411.8,108.17A3.92,3.92,0,0,1,414,108a3.83,3.83,0,0,1,3.17,2.74.17.17,0,0,1-.28.16,5.19,5.19,0,0,0-1.37-1,5.67,5.67,0,0,0-1.69-.64,3.3,3.3,0,0,0-1.59.11c-.26.08-.51.21-.77.3s-.48.25-.73.32a.26.26,0,0,1-.32-.25A2.09,2.09,0,0,1,411.8,108.17Z"/><path class="cls-25" d="M398.84,108a4,4,0,0,0-2.21-.21,3.8,3.8,0,0,0-3.17,2.73c0,.16.15.29.27.17a5.4,5.4,0,0,1,1.37-1,6.14,6.14,0,0,1,1.7-.64,3.26,3.26,0,0,1,1.58.11c.27.09.51.21.78.3s.47.25.73.32a.24.24,0,0,0,.31-.24A2.05,2.05,0,0,0,398.84,108Z"/><path class="cls-25" d="M422.93,105.93c-.14-2.35-.54-5.07-2.58-6.24-.65-.38-1.66-.44-2,.23a1.74,1.74,0,0,0-.11.75,19.55,19.55,0,0,0,.12,2.76,21.26,21.26,0,0,0,.69,2.94c.59,2.07,1,7,3,8.15C423.75,112.54,422.93,108.39,422.93,105.93Z"/><path class="cls-25" d="M416.35,101.65a2.91,2.91,0,0,1-4.5-1.75,18.83,18.83,0,0,1-4.06,3.81,6.82,6.82,0,0,1-3.19,1.36,3.11,3.11,0,0,1-3-1.38c-1.67,1.94-3.42,3.94-5.78,4.92s-5.5.58-6.87-1.58c-2.28,2.43-6.67,2.11-8.88-.39a7.62,7.62,0,0,1-.14-9.26,9.73,9.73,0,0,1,8.85-3.58,9.09,9.09,0,0,1,12-12.61c1.69.84,3.1,2.2,4.81,3,2.2-3.64,6.12-6.48,10.38-6.43A9.67,9.67,0,0,1,422.84,94a11.34,11.34,0,0,1,6,8.73c.35,3.3-1,9.45-5.45,8.39C419.35,110.2,416.23,105.63,416.35,101.65Z"/></g></svg>